<?xml version="1.0" encoding="UTF-8"?>
<svg xmlns="http://www.w3.org/2000/svg" viewBox="0 0 552.68 660.84">
  <g id="background_background">
    <rect x="-.81" y="-1.82" width="552.12" height="663" style="fill: #f4eeec; stroke-width: 0px;"/>
  </g>
  <g id="background">
    <circle cx="279.04" cy="275.64" r="209.47" style="fill: #f4eeec; opacity: .48; stroke: #221f20; stroke-miterlimit: 10;"/>
  </g>
  <g id="guide_circles" data-name="guide circles">
    <circle cx="278.14" cy="275.32" r="185.41" style="fill: none; stroke: #949598; stroke-miterlimit: 10; stroke-width: .53px;"/>
    <circle cx="279.21" cy="274.63" r="109.8" style="fill: none; stroke: #949598; stroke-miterlimit: 10; stroke-width: .52px;"/>
    <circle cx="278.86" cy="275.81" r="160.05" style="fill: none; stroke: #949598; stroke-miterlimit: 10; stroke-width: .57px;"/>
    <circle cx="279.5" cy="275.65" r="84.65" style="fill: none; stroke: #949598; stroke-miterlimit: 10; stroke-width: .6px;"/>
    <line x1="278.69" y1="65.47" x2="278.69" y2="239.69" style="fill: none; stroke: #949598; stroke-miterlimit: 10; stroke-width: .5px;"/>
    <line x1="279.5" y1="310.3" x2="279.5" y2="473.81" style="fill: none; stroke: #949598; stroke-miterlimit: 10; stroke-width: .5px;"/>
    <circle cx="279.5" cy="274.99" r="35.3" style="fill: #f4eeec; stroke: #949598; stroke-miterlimit: 10; stroke-width: .5px;"/>
    <line x1="68.65" y1="274.55" x2="244.19" y2="274.55" style="fill: none; stroke: #949598; stroke-miterlimit: 10; stroke-width: .5px;"/>
    <line x1="314.8" y1="274.99" x2="490.95" y2="274.99" style="fill: none; stroke: #949598; stroke-miterlimit: 10; stroke-width: .5px;"/>
    <circle cx="279.21" cy="275.82" r="135.5" style="fill: none; stroke: #949598; stroke-miterlimit: 10; stroke-width: .64px;"/>
    <circle cx="279.5" cy="275.15" r="60.14" style="fill: none; stroke: #949598; stroke-miterlimit: 10; stroke-width: .43px;"/>
  </g>
  <g id="below_freezing" data-name="below freezing">
    <path d="M393.29,376.5c-56.54,18.57-99.72-21.7-117.25-42.56s-53.62-44.23-72.08-61.94-26.75-53.87,1.13-118.68c22.81-53.01,98.69-74.63,125.56-80.75-16.51-4.18-33.8-6.42-51.61-6.42-115.69,0-209.47,93.78-209.47,209.47s93.78,209.47,209.47,209.47c103.13,0,188.86-74.53,206.25-172.67-24.13,28.37-56.31,52.34-92,64.06Z" style="fill: #fff; opacity: .36; stroke-width: 0px;"/>
  </g>
  <g id="Months">
    <g>
      <path d="M334.82,37.97c0,2.68-1.02,3.68-3.11,3.68-.47,0-.96-.04-1.31-.12v-1.44c.22.04.73.08,1.11.08,1.37,0,1.56-1,1.56-2.11v-8.37h1.75v8.3Z" style="fill: #a39f9e; stroke-width: 0px;"/>
      <path d="M343.77,39.53c0,.79.07,1.71.12,1.96h-1.6c-.07-.19-.12-.61-.14-1.08-.3.56-.98,1.28-2.63,1.28-2.05,0-2.92-1.34-2.92-2.66,0-1.94,1.53-2.83,4.09-2.83h1.43v-.7c0-.73-.24-1.6-1.76-1.6-1.36,0-1.6.66-1.75,1.33h-1.61c.12-1.26.9-2.61,3.41-2.6,2.15,0,3.34.88,3.34,2.86v4.04ZM342.14,37.32h-1.32c-1.67,0-2.52.47-2.52,1.62,0,.85.57,1.48,1.6,1.48,1.97,0,2.24-1.34,2.24-2.83v-.27Z" style="fill: #a39f9e; stroke-width: 0px;"/>
      <path d="M346.26,35.01c0-.75,0-1.52-.02-2.18h1.62c.04.25.07,1.1.07,1.36.33-.7,1.04-1.56,2.68-1.56s2.89,1.03,2.89,3.3v5.55h-1.67v-5.35c0-1.24-.47-2.09-1.75-2.09-1.51,0-2.16,1.11-2.16,2.81v4.63h-1.67v-6.47Z" style="fill: #a39f9e; stroke-width: 0px;"/>
    </g>
    <path d="M449.5,92.92h7.71v1.48h-5.99v3.65h5.61v1.48h-5.61v5.19h-1.72v-11.81Z" style="fill: #a39f9e; stroke-width: 0px;"/>
    <path d="M519.51,208.66c0-2.16.03-4.39.08-5.65h-.07c-.51,2.01-2.29,6.86-3.6,10.57h-1.55c-.99-3.06-2.83-8.51-3.35-10.59h-.06c.09,1.37.13,3.95.13,5.98v4.62h-1.64v-11.81h2.61c1.26,3.55,2.79,8.12,3.18,9.67h.03c.28-1.21,2.09-6.2,3.41-9.67h2.53v11.81h-1.71v-4.92Z" style="fill: #a39f9e; stroke-width: 0px;"/>
    <path d="M513.43,335.97l-1.2,3.39h-1.74l4.17-11.81h2.17l4.35,11.81h-1.86l-1.25-3.39h-4.64ZM517.64,334.49c-1.07-2.99-1.67-4.62-1.93-5.55h-.02c-.29,1.03-.96,3-1.82,5.55h3.78Z" style="fill: #a39f9e; stroke-width: 0px;"/>
    <path d="M456.47,444.14c0-2.16.03-4.39.08-5.65h-.07c-.51,2.01-2.29,6.86-3.6,10.57h-1.55c-.99-3.06-2.83-8.51-3.35-10.59h-.06c.09,1.37.13,3.95.13,5.98v4.62h-1.64v-11.81h2.61c1.26,3.55,2.79,8.12,3.18,9.67h.03c.28-1.21,2.09-6.2,3.41-9.67h2.53v11.81h-1.71v-4.92Z" style="fill: #a39f9e; stroke-width: 0px;"/>
    <path d="M344.17,510.89c0,2.68-1.02,3.68-3.11,3.68-.47,0-.96-.04-1.31-.12v-1.44c.22.04.73.08,1.11.08,1.37,0,1.56-1,1.56-2.11v-8.37h1.75v8.3Z" style="fill: #a39f9e; stroke-width: 0px;"/>
    <path d="M217.27,510.89c0,2.68-1.02,3.68-3.11,3.68-.47,0-.96-.04-1.31-.12v-1.44c.22.04.73.08,1.11.08,1.37,0,1.56-1,1.56-2.11v-8.37h1.75v8.3Z" style="fill: #a39f9e; stroke-width: 0px;"/>
    <path d="M105.17,445.67l-1.2,3.39h-1.74l4.17-11.81h2.17l4.35,11.81h-1.86l-1.25-3.39h-4.64ZM109.38,444.18c-1.07-2.99-1.67-4.62-1.93-5.55h-.02c-.29,1.03-.96,3-1.82,5.55h3.78Z" style="fill: #a39f9e; stroke-width: 0px;"/>
    <path d="M41.9,336.35c.31,1.37,1.26,2.09,2.9,2.09,1.75,0,2.45-.8,2.45-1.87,0-1.14-.58-1.76-2.88-2.31-2.86-.69-3.8-1.68-3.8-3.33,0-1.81,1.34-3.23,4-3.23,2.87,0,4.05,1.64,4.21,3.22h-1.78c-.19-.99-.8-1.84-2.49-1.84-1.36,0-2.13.61-2.13,1.68s.63,1.47,2.67,1.96c3.38.82,4,2.12,4,3.67,0,1.95-1.45,3.44-4.38,3.44s-4.31-1.59-4.56-3.47h1.78Z" style="fill: #a39f9e; stroke-width: 0px;"/>
    <path d="M49.17,207.86c0,3.25-1.85,6.13-5.59,6.13-3.52,0-5.46-2.69-5.46-6.07s2.01-6.07,5.6-6.07c3.35,0,5.45,2.48,5.45,6.01ZM39.95,207.87c0,2.5,1.25,4.65,3.7,4.65,2.65,0,3.69-2.19,3.69-4.63s-1.18-4.56-3.69-4.56-3.7,2.07-3.7,4.55Z" style="fill: #a39f9e; stroke-width: 0px;"/>
    <path d="M102.7,103.38v-11.81h2.28c1.65,2.74,5.15,8.4,5.79,9.69h.02c-.12-1.46-.11-3.36-.11-5.29v-4.4h1.64v11.81h-2.15c-1.5-2.51-5.19-8.68-5.9-10.01h-.02c.08,1.29.09,3.37.09,5.5v4.51h-1.65Z" style="fill: #a39f9e; stroke-width: 0px;"/>
    <path d="M211.93,28.78h4.31c3.34,0,5.59,2.26,5.59,5.78s-2.19,6.03-5.65,6.03h-4.24v-11.81ZM213.68,39.12h2.37c2.68,0,3.94-1.93,3.94-4.53,0-2.25-1.15-4.34-3.93-4.34h-2.38v8.87Z" style="fill: #a39f9e; stroke-width: 0px;"/>
  </g>
  <g id="backcountry">
    <path d="M326.95,259.89c-1.16-7.26-5.23-15.46-13.44-20.06l-34.27,32.45,9.7-36.34c-6.95.44-13.62,1.97-19.67,4.55l7.99,29.97-21.56-21.33c-1.39,1.27-2.72,2.61-3.94,4.07-2.8,3.34-4.58,6.92-5.7,10.36l31.05,8.98-32.3,8.75c.63,7.12,3.94,13.06,8.51,17.68l24.54-24.66-8.96,34.25c2.62.88,5.23,1.46,7.67,1.7,5.26.53,9.31,0,13.07-1.39l-9.79-35.95,26.36,25.48c.51-.38,1.02-.75,1.55-1.15,6.07-4.46,10.13-8.99,13-13.55l-39.27-10.93,45.48-12.89Z" style="fill: none; stroke-width: 0px;"/>
    <path d="M288.93,235.94l.58-2.16c-1.4.11-2.82.24-4.26.37-5.74.53-11.43,2.6-16.34,5.02l.35,1.33c6.05-2.58,12.73-4.11,19.67-4.55Z" style="fill: #c78249; stroke-width: 0px;"/>
    <path d="M251.74,253.2c1.22-1.45,2.55-2.8,3.94-4.07l-.97-.96c-.29.24-.45.37-.45.37-4.57,4.67-7.42,9.71-9.11,14.76l.89.26c1.12-3.44,2.9-7.02,5.7-10.36Z" style="fill: #c78249; stroke-width: 0px;"/>
    <path d="M323.53,284.49l-2.79-.78c-2.86,4.56-6.93,9.09-13,13.55-.54.39-1.04.77-1.55,1.15l1.71,1.65c1.53-1.14,3.06-2.33,4.61-3.54,4.41-3.46,8.08-7.68,11.02-12.02Z" style="fill: #c78249; stroke-width: 0px;"/>
    <path d="M326.95,259.89l4.89-1.39c-1.02-6.04-4.48-12.27-10.12-18.64-1.29-1.45-2.8-2.61-4.52-3.53l-3.7,3.5c8.21,4.59,12.28,12.8,13.44,20.06Z" style="fill: #c78249; stroke-width: 0px;"/>
    <path d="M244.79,281.29l-1.43.39c.05.46.1.91.16,1.36.71,5.35,3.88,11.46,9.05,16.67l.73-.73c-4.57-4.62-7.88-10.57-8.51-17.68Z" style="fill: #c78249; stroke-width: 0px;"/>
    <path d="M276.56,310.27c-2.44-.25-5.04-.82-7.67-1.7l-.28,1.06c1,.33,2.03.64,3.08.9,6.76,1.69,12.72,1.31,18.27-.43l-.33-1.22c-3.76,1.39-7.81,1.92-13.07,1.39Z" style="fill: #c78249; stroke-width: 0px;"/>
    <path d="M303.9,236.62c3.69.56,6.88,1.69,9.61,3.22l3.7-3.5c-6.76-3.62-16.61-3.46-27.7-2.55l-.58,2.16c4.9-.31,9.93-.09,14.97.68Z" style="fill: #c78249; opacity: .76; stroke-width: 0px;"/>
    <path d="M326.72,269.26c-1.27,4.81-2.96,9.65-5.98,14.45l2.79.78c5.55-8.18,8.47-16.81,8.62-21.63.04-1.44-.06-2.89-.31-4.35l-4.89,1.39c.56,3.52.44,6.82-.23,9.37Z" style="fill: #c78249; opacity: .76; stroke-width: 0px;"/>
    <path d="M289.63,308.88l.33,1.22c6.3-1.96,12.08-5.66,17.94-10.04l-1.71-1.65c-6.63,4.9-11.33,8.54-16.56,10.47Z" style="fill: #c78249; opacity: .76; stroke-width: 0px;"/>
    <path d="M253.3,298.98l-.73.73c4.13,4.16,9.53,7.75,16.04,9.92l.28-1.06c-5.53-1.86-11.15-5.1-15.59-9.59Z" style="fill: #c78249; opacity: .76; stroke-width: 0px;"/>
    <path d="M244.71,280.28s-1.55-7.86,1.33-16.71l-.89-.26c-2.13,6.38-2.38,12.76-1.78,18.38l1.43-.39c-.03-.34-.07-.67-.08-1.02Z" style="fill: #c78249; opacity: .76; stroke-width: 0px;"/>
    <path d="M269.26,240.49l-.35-1.33c-7.15,3.52-12.64,7.75-14.2,9l.97.96c3.95-3.62,8.54-6.5,13.58-8.64Z" style="fill: #c78249; opacity: .76; stroke-width: 0px;"/>
  </g>
  <g id="rv">
    <path d="M253.78,249.83c.33-.44.63-1.01.9-1.69l-1.34-1.33c-.96,3.2-2.32,6.12-4.51,9.23-1.4,1.98-2.49,4.48-3.28,7.37l1.85.54c1.83-6.42,4.5-11.62,6.38-14.12Z" style="fill: #3c877b; stroke-width: 0px;"/>
    <path d="M246.85,288.53c-.74-2.44-1.18-4.94-1.38-7.43l-.99.27c.27,2.65.71,5.38,1.33,8.16.9,4.05,3.32,7.53,6.5,10.44l.84-.84c-2.73-2.8-4.99-6.29-6.3-10.6Z" style="fill: #3c877b; stroke-width: 0px;"/>
    <path d="M371.57,199.37c8.16,14.96,12.22,30.56,14.55,43.75l7.94-2.25c-2.35-17.19-6.61-37.1-19.13-54.66-.64-.9-1.31-1.77-2-2.63l-7.47,7.07c2.35,2.73,4.43,5.64,6.11,8.72Z" style="fill: #3c877b; stroke-width: 0px;"/>
    <path d="M270.09,193.59c8.53-10.7,23.86-28.24,38.29-30.54l2.55-9.56c-.28.02-.56.03-.82.06-13.09,1.3-28.72,16.59-38.12,30.6-1.97,2.94-6.39,11.23-10.16,17.74-.66,1.14-1.24,2.56-1.75,4.18l.92,3.47c2.47-6.41,5.73-11.72,9.09-15.93Z" style="fill: #3c877b; stroke-width: 0px;"/>
    <path d="M360.41,313.78c14.39,1.17,23.21-.65,30.21-6.87.88-.78,1.67-1.83,2.37-3.09l-7.2-2c-.12.14-.24.28-.37.4-5.17,4.87-14,8.82-30.58,7.3-12.43-1.14-28.69-2.16-39.53-2.3l1.39,1.34c15.58-.06,30,4.1,43.72,5.22Z" style="fill: #3c877b; stroke-width: 0px;"/>
    <path d="M276.07,309.86c-1.86-.24-4.35-.73-7.1-1.57l-.22.84c3.79,1.26,7.25,1.95,9.61,2.06,3.33.16,7.21-.16,11.74-.62l-.32-1.17c-5.24.57-10.28.92-13.7.47Z" style="fill: #3c877b; stroke-width: 0px;"/>
    <path d="M313,162.85c13.45,1.18,38.22,11.21,52.47,27.79l7.47-7.07c-17.32-21.62-48.87-30.9-62-30.1l-2.55,9.56c1.55-.25,3.1-.32,4.62-.19Z" style="fill: #3c877b; opacity: .77; stroke-width: 0px;"/>
    <path d="M388.46,259.31c1.78,14.69,2.11,36.9-2.67,42.5l7.2,2c4.84-8.75,5.36-28.06,3.21-45.4-.66-5.32-1.27-11.26-2.13-17.55l-7.94,2.25c1.06,5.99,1.77,11.49,2.34,16.19Z" style="fill: #3c877b; opacity: .77; stroke-width: 0px;"/>
    <path d="M306.61,307.4c-4.43.38-10.77,1.33-16.84,1.99l.32,1.17c6.58-.67,14.55-1.66,24.3-1.97.77-.02,1.54-.03,2.31-.03l-1.39-1.34c-3.62-.05-6.64,0-8.7.18Z" style="fill: #3c877b; opacity: .77; stroke-width: 0px;"/>
    <path d="M253.14,299.14l-.84.84c4.64,4.26,10.9,7.31,16.44,9.15l.22-.84c-5.12-1.57-11.16-4.37-15.82-9.15Z" style="fill: #3c877b; opacity: .77; stroke-width: 0px;"/>
    <path d="M247.4,263.95l-1.85-.54c-1.36,5.01-1.76,11.2-1.06,17.96l.99-.27c-.47-6,.45-11.98,1.93-17.16Z" style="fill: #3c877b; opacity: .77; stroke-width: 0px;"/>
    <path d="M260.1,212.01c.29-.85.59-1.68.91-2.5l-.92-3.47c-2.43,7.61-3.4,19.59-4.4,27.64-.66,5.26-1.22,9.38-2.34,13.13l1.34,1.33c3.11-7.62,3.08-29.2,5.42-36.13Z" style="fill: #3c877b; opacity: .77; stroke-width: 0px;"/>
  </g>
  <g id="tent">
    <path d="M265.37,216.04c5.85-14.63,14.76-37.76,24.33-53.19,9.57-15.43,16.62-22.94,25.06-28.89.54-.38,1.1-.75,1.67-1.11l2.61-9.77c-2.05,1.11-3.86,2.24-5.37,3.36-7.86,5.85-20.38,22.54-27.25,35.18-5.52,10.17-17.07,39.84-23.11,56.58l.52,1.96c.48-1.37.98-2.75,1.53-4.12Z" style="fill: #88b052; stroke-width: 0px;"/>
    <path d="M252.6,252.87c.93-1.26,1.73-2.73,2.46-4.35l-2.49-2.46c-2.5,5.44-5.1,10.87-7.29,15.87-.18.41-.34.83-.49,1.27l2.42.7c1.45-4.64,3.52-8.49,5.39-11.03Z" style="fill: #88b052; stroke-width: 0px;"/>
    <path d="M465.3,211.53c.09,2.9-.04,6.01-.47,9.28l16.4-4.65c.2-17.26-6.09-37.61-15.86-52.44-10.15-15.42-17-28.2-31.33-37.99l-11.67,11.05c26.69,19.25,42.54,62.09,42.94,74.75Z" style="fill: #88b052; stroke-width: 0px;"/>
    <path d="M252.07,297.15c-3.76-5.34-5.7-10.83-6.42-16.09l-1.33.36c1.34,6.89,4.15,13.71,8.13,18.41l.95-.95c-.46-.55-.91-1.12-1.33-1.72Z" style="fill: #88b052; stroke-width: 0px;"/>
    <path d="M269.06,307.92l-.43,1.63c6.93,2.1,13.72,2.24,18.52,1.13.86-.2,1.8-.42,2.79-.64l-.43-1.58c-5.57.75-13.17,1.16-20.45-.53Z" style="fill: #88b052; stroke-width: 0px;"/>
    <path d="M347.38,305.75c10.45.1,19.78.84,37.36-4.22l-3.93-1.09c-14.41,3.41-28.31,4.43-44.83,3.1-8.2-.66-16.66-.08-23.66.8l1.13,1.1c2.08-.28,4.1-.49,5.99-.62,10.29-.67,14.3.8,27.94.94Z" style="fill: #88b052; stroke-width: 0px;"/>
    <path d="M410.06,130.04c4.32,1.64,8.43,3.94,12.31,6.73l11.67-11.05c-6.76-4.62-15.19-8.58-26.43-11.84-31.56-9.14-70.14-.79-88.56,9.19l-2.61,9.77c20.9-13.38,60.46-15.35,93.62-2.8Z" style="fill: #88b052; opacity: .78; stroke-width: 0px;"/>
    <path d="M439.75,264.47c-20.95,18.64-44.19,32.46-58.7,35.91-.08.02-.16.04-.25.06l3.93,1.09c5.36-1.54,11.47-3.62,18.62-6.42,30.63-12,59.42-37.65,71.6-55.36,4.22-6.14,6.16-14.43,6.26-23.59l-16.4,4.65c-1.73,13.09-8.32,28.74-25.08,43.66Z" style="fill: #88b052; opacity: .78; stroke-width: 0px;"/>
    <path d="M297.28,306.99c-1.16.28-4,.95-7.77,1.46l.43,1.58c6.46-1.49,15.47-3.53,23.51-4.6l-1.13-1.1c-7.18.9-12.81,2.12-15.04,2.66Z" style="fill: #88b052; opacity: .78; stroke-width: 0px;"/>
    <path d="M253.41,298.87l-.95.95c.98,1.16,2.03,2.2,3.15,3.07,4.07,3.16,8.58,5.31,13.03,6.66l.43-1.63c-5.84-1.36-11.46-4.07-15.65-9.05Z" style="fill: #88b052; opacity: .78; stroke-width: 0px;"/>
    <path d="M247.21,263.9l-2.42-.7c-1.7,4.88-1.77,11.57-.47,18.22l1.33-.36c-.86-6.24,0-12.16,1.56-17.16Z" style="fill: #88b052; opacity: .78; stroke-width: 0px;"/>
    <path d="M263.84,220.16l-.52-1.96c-1.47,4.06-2.61,7.38-3.26,9.45-1.8,5.72-4.56,12.08-7.47,18.42l2.49,2.46c3.26-7.2,5.02-17.59,8.77-28.37Z" style="fill: #88b052; opacity: .78; stroke-width: 0px;"/>
  </g>
  <g id="lodging">
    <path d="M268.59,313.4c-.31-.01-.63-.03-.96-.04l-.38,1.47c1.76-.03,3.41-.19,4.88-.47,6.75-1.29,11.43-4.9,17.71-4.71l-.29-1.06c-8.12.12-13.33,5.13-20.96,4.81Z" style="fill: #e8c055; stroke-width: 0px;"/>
    <path d="M262.02,190.01c5.42-11.97,15.82-46.82,31.07-68.84,11.15-16.1,22.61-27.28,34.26-29.23l3.96-14.85c-6.6-.22-12.98,1.4-18.78,5.8-14.99,11.39-25.48,33.27-31.17,45.86-5.7,12.59-13.94,33.74-20.37,59.27-1.07,4.26-1.91,8.16-2.58,11.76l.8,3.01c.51-5.09,1.38-9.62,2.81-12.78Z" style="fill: #e8c055; stroke-width: 0px;"/>
    <path d="M443.14,196.59c4.82,9.46,8.83,18.44,12.18,26.91l12.32-3.49c-11.41-26.89-26.2-53.14-37.61-66.08-3.22-3.66-7.29-8.21-11.84-13.2l-8.51,8.06c12.43,13.75,24.27,29.77,33.46,47.8Z" style="fill: #e8c055; stroke-width: 0px;"/>
    <path d="M238.07,297.9s-4.74-8.11-4.22-13.65l-.8.22c-.43,2.81-.23,5.94,1.4,9.61,3.13,7.05,6.48,10.61,8.75,12.61.43.38.88.73,1.34,1.08l.83-.84c-2.84-2.17-5.38-5.09-7.3-9.04Z" style="fill: #e8c055; stroke-width: 0px;"/>
    <path d="M246.91,260.42c2.54-3.26,6.06-7.17,8.54-11.52l-2.22-2.2c-.51,2.53-1.59,5.14-4.4,9.13-1.73,2.45-3.41,4.83-4.98,7.09l.95.27c.75-1.01,1.46-1.95,2.11-2.78Z" style="fill: #e8c055; stroke-width: 0px;"/>
    <path d="M443.14,335.61c-29.87.69-61.37-3.97-81.7-8.82-11.71-2.8-24.38-5.59-34.06-7.9l2.43,2.35c3.08.89,5.97,1.66,8.52,2.26,13.72,3.2,72.71,18.98,87,21.04s46.88,7.2,56.59-11.55c.65-1.26,1.24-2.57,1.79-3.92l-15.49-4.31c-3.7,5.87-10.94,10.53-25.09,10.85Z" style="fill: #e8c055; stroke-width: 0px;"/>
    <path d="M340.27,93.73c11.11,5.11,41.75,24.46,69.41,55.06l8.51-8.06c-17.46-19.13-42.22-44.84-55.3-52.45-10.11-5.88-21.12-10.85-31.58-11.2l-3.96,14.85c4.28-.72,8.59-.2,12.92,1.79Z" style="fill: #e8c055; opacity: .76; stroke-width: 0px;"/>
    <path d="M478.5,249.19c-2.94-9.4-6.68-19.33-10.86-29.18l-12.32,3.49c17.24,43.57,16.77,73.28,16.77,81.55,0,5.2.25,13.2-3.86,19.71l15.49,4.31c7.59-18.88,5.02-47.19-5.22-79.88Z" style="fill: #e8c055; opacity: .76; stroke-width: 0px;"/>
    <path d="M312.47,314.78c-5.43-2.31-11.2-5.2-20.67-6.12-.78-.08-1.53-.09-2.26-.08l.29,1.06c.96.03,1.95.14,2.99.37,6.43,1.4,23.47,7.34,36.98,11.23l-2.43-2.35c-7.11-1.7-12.61-3.13-14.91-4.11Z" style="fill: #e8c055; opacity: .76; stroke-width: 0px;"/>
    <path d="M245.38,306.94l-.83.84c6.65,5.11,15.61,7.16,22.71,7.05l.38-1.47c-6.06-.27-15.12-.97-22.26-6.42Z" style="fill: #e8c055; opacity: .76; stroke-width: 0px;"/>
    <path d="M234.08,282.94c2.09-7.2,6.87-14.53,10.72-19.74l-.95-.27c-4.07,5.89-7.37,11-8.64,14.39-.84,2.25-1.76,4.57-2.16,7.15l.8-.22c.04-.46.11-.9.23-1.32Z" style="fill: #e8c055; opacity: .76; stroke-width: 0px;"/>
    <path d="M258.31,241.03c.73-5.56-.53-24.07.9-38.24l-.8-3.01c-3.35,17.95-2.36,28.14-3.83,35.87-.96,5.07-.74,8.01-1.35,11.06l2.22,2.2c1.42-2.49,2.5-5.12,2.87-7.87Z" style="fill: #e8c055; opacity: .76; stroke-width: 0px;"/>
  </g>
  <g id="Count">
    <g>
      <path d="M258.27,491.81v-15.17c-.9.61-2.72,1.29-3.72,1.46v-2.18c1.48-.37,3.26-1.41,4.49-2.6h2.04v18.5h-2.8Z" style="fill: #62554f; stroke-width: 0px;"/>
      <path d="M273.49,491.81v-4.63h-8.6v-2.47l8.25-11.33h2.96v11.47h2.35l-.28,2.32h-2.07v4.63h-2.61ZM273.49,480.47c0-1.53.02-3.22.07-4.41-.74,1.45-4.11,6.09-6.03,8.8h5.96v-4.39Z" style="fill: #62554f; stroke-width: 0px;"/>
      <path d="M293.94,482.47c0,4.66-1.36,9.67-6.57,9.67s-6.55-4.72-6.55-9.55,1.58-9.55,6.64-9.55,6.48,4.61,6.48,9.42ZM283.71,482.59c0,3.48.57,7.26,3.69,7.26s3.65-3.58,3.65-7.36c0-3.55-.58-7.14-3.58-7.14s-3.76,3.2-3.76,7.24Z" style="fill: #62554f; stroke-width: 0px;"/>
      <path d="M300.08,484.2c1.17-1.41,4.06-4.5,6-6.65h3.24l-5.29,5.52,5.88,8.73h-3.19l-4.56-6.97-2.08,2.01v4.96h-2.75v-20.53h2.75v12.93Z" style="fill: #62554f; stroke-width: 0px;"/>
    </g>
    <g>
      <path d="M136.55,623.66h1.29v8.64h5.08l-.18,1.11h-6.2v-9.75Z" style="fill: #62554f; stroke-width: 0px;"/>
      <path d="M150.34,629.84c0,2.05-1.17,3.73-3.34,3.73-2.04,0-3.27-1.57-3.27-3.71s1.21-3.73,3.35-3.73c1.97,0,3.26,1.48,3.26,3.71ZM144.99,629.85c0,1.56.78,2.69,2.05,2.69s2.03-1.08,2.03-2.69-.73-2.7-2.06-2.7-2.03,1.07-2.03,2.69Z" style="fill: #62554f; stroke-width: 0px;"/>
      <path d="M157.93,623.12v8.28c0,.67,0,1.32.01,2.01h-1.18c-.03-.19-.06-.73-.06-1.01-.35.74-1.07,1.18-2.23,1.18-1.83,0-2.95-1.48-2.95-3.65s1.21-3.79,3.17-3.79c1.26,0,1.82.51,2.01.91v-3.92h1.23ZM152.79,629.89c0,1.72.82,2.64,1.93,2.64,1.66,0,2.03-1.23,2.03-2.78s-.33-2.58-1.93-2.58c-1.25,0-2.03.99-2.03,2.71Z" style="fill: #62554f; stroke-width: 0px;"/>
      <path d="M165.98,632.72c0,2.29-.92,3.62-3.33,3.62-2.25,0-2.88-1.26-3-2.2h1.4c.2.72.77,1.12,1.66,1.12,1.55,0,1.92-.98,1.92-2.57v-.53c-.38.76-1.02,1.2-2.19,1.2-1.78,0-2.95-1.45-2.95-3.51,0-2.31,1.35-3.75,3.09-3.75,1.33,0,1.9.63,2.05,1.07.01-.3.05-.76.06-.91h1.3c0,.46-.02,1.37-.02,2.06v4.39ZM160.93,629.79c0,1.45.75,2.41,1.86,2.41,1.47,0,1.89-.99,1.89-2.5s-.38-2.45-1.85-2.45c-1.23,0-1.9,1.02-1.9,2.54Z" style="fill: #62554f; stroke-width: 0px;"/>
      <path d="M168.01,623.13h1.38v1.58h-1.38v-1.58ZM168.01,626.27h1.38v7.13h-1.38v-7.13Z" style="fill: #62554f; stroke-width: 0px;"/>
      <path d="M171.43,628.07c0-.62,0-1.25-.01-1.8h1.34c.03.21.05.91.05,1.12.28-.58.86-1.29,2.21-1.29s2.38.85,2.38,2.72v4.58h-1.38v-4.41c0-1.02-.39-1.72-1.44-1.72-1.25,0-1.78.92-1.78,2.32v3.81h-1.38v-5.33Z" style="fill: #62554f; stroke-width: 0px;"/>
      <path d="M185.41,632.72c0,2.29-.92,3.62-3.33,3.62-2.25,0-2.88-1.26-3-2.2h1.4c.2.72.77,1.12,1.66,1.12,1.55,0,1.92-.98,1.92-2.57v-.53c-.38.76-1.02,1.2-2.19,1.2-1.78,0-2.95-1.45-2.95-3.51,0-2.31,1.35-3.75,3.09-3.75,1.33,0,1.9.63,2.05,1.07.01-.3.05-.76.06-.91h1.3c0,.46-.02,1.37-.02,2.06v4.39ZM180.36,629.79c0,1.45.75,2.41,1.86,2.41,1.47,0,1.89-.99,1.89-2.5s-.38-2.45-1.85-2.45c-1.23,0-1.9,1.02-1.9,2.54Z" style="fill: #62554f; stroke-width: 0px;"/>
    </g>
    <g>
      <path d="M232.04,625.36h-3.15v-1.11h7.6v1.11h-3.15v8.64h-1.3v-8.64Z" style="fill: #62554f; stroke-width: 0px;"/>
      <path d="M236.97,630.67c0,1.44.74,2.47,1.94,2.47,1.12,0,1.49-.58,1.71-1.1h1.24c-.28.91-1.04,2.12-2.99,2.12-2.23,0-3.14-1.82-3.14-3.64,0-2.11,1.06-3.8,3.22-3.8,2.29,0,3.04,1.84,3.04,3.35,0,.22,0,.4-.02.59h-5.01ZM240.76,629.81c-.01-1.17-.6-2.11-1.82-2.11s-1.8.87-1.92,2.11h3.74Z" style="fill: #62554f; stroke-width: 0px;"/>
      <path d="M243.58,628.69c0-.62,0-1.24-.01-1.79h1.19c.03.21.05.96.05,1.17.28-.61.86-1.34,2.24-1.34s2.37.81,2.37,2.7v4.57h-1.23v-4.41c0-1.07-.42-1.8-1.5-1.8-1.34,0-1.88,1.02-1.88,2.45v3.76h-1.23v-5.31Z" style="fill: #62554f; stroke-width: 0px;"/>
      <path d="M250.5,626.9h1.23v-2.1h1.23v2.1h1.57v1h-1.57v4.16c0,.69.17,1.04.81,1.04.17,0,.42,0,.62-.06v.92c-.3.11-.72.13-1.06.13-1.1,0-1.59-.57-1.59-1.75v-4.45h-1.23v-1Z" style="fill: #62554f; stroke-width: 0px;"/>
    </g>
    <g>
      <path d="M302.07,628.81v4.29h-1.28v-9.75h3.81c2,0,3.07,1.09,3.07,2.61,0,1.27-.73,2.03-1.66,2.29.79.21,1.49.81,1.49,2.5v.42c0,.67-.03,1.52.13,1.93h-1.26c-.18-.42-.16-1.18-.16-2.09v-.21c0-1.39-.39-1.99-2.14-1.99h-1.99ZM302.07,627.73h2.12c1.49,0,2.14-.56,2.14-1.66,0-1.04-.68-1.62-2-1.62h-2.26v3.28Z" style="fill: #62554f; stroke-width: 0px;"/>
      <path d="M312.34,633.11l-3.55-9.75h1.39l1.72,4.86c.5,1.43,1,2.87,1.22,3.76h.03c.21-.8.76-2.3,1.27-3.72l1.79-4.91h1.33l-3.67,9.75h-1.53Z" style="fill: #62554f; stroke-width: 0px;"/>
    </g>
    <g>
      <path d="M217.53,559.66c0,5.19-1.98,7.14-6.04,7.14-.92,0-1.87-.08-2.55-.24v-2.8c.43.08,1.42.15,2.15.15,2.67,0,3.03-1.94,3.03-4.1v-16.26h3.4v16.11Z" style="fill: #62554f; stroke-width: 0px;"/>
      <path d="M224.59,558.69c.02,3.16,1.61,5.52,4.36,5.52,2.52,0,3.32-1.25,3.84-2.44h3.26c-.65,2.13-2.46,5.1-7.19,5.1-5.33,0-7.53-4.26-7.53-8.61,0-5.05,2.55-8.99,7.72-8.99,5.49,0,7.3,4.31,7.3,8.02,0,.52,0,.94-.05,1.4h-11.7ZM233.06,556.49c-.03-2.61-1.31-4.72-4.06-4.72s-4.04,1.96-4.31,4.72h8.37Z" style="fill: #62554f; stroke-width: 0px;"/>
      <path d="M240,566.48v-24.2h3.24v24.2h-3.24Z" style="fill: #62554f; stroke-width: 0px;"/>
      <path d="M248.05,566.48v-24.2h3.24v24.2h-3.24Z" style="fill: #62554f; stroke-width: 0px;"/>
      <path d="M257.73,549.67c2.52,7.61,4.02,12.21,4.43,13.89h.03c.51-1.86,1.67-5.69,4.27-13.89h3.26l-5.97,17.52c-1.69,4.9-2.97,6.18-6.52,6.18-.5,0-1.2-.03-1.88-.11v-2.76c.41.05.9.08,1.35.08,2.05,0,2.87-.87,3.79-3.49l-6.26-17.42h3.5Z" style="fill: #62554f; stroke-width: 0px;"/>
      <path d="M274.43,561.62c.46,1.74,1.76,2.76,3.94,2.76,2.32,0,3.23-.98,3.23-2.41s-.76-2.15-3.81-2.89c-4.93-1.2-5.91-2.71-5.91-5.01s1.75-4.79,6.21-4.79,6.25,2.56,6.45,4.89h-3.12c-.22-1-.97-2.44-3.47-2.44-2.2,0-2.86,1.04-2.86,2.08,0,1.17.66,1.75,3.67,2.47,5.19,1.23,6.17,2.97,6.17,5.46,0,2.91-2.29,5.14-6.66,5.14s-6.62-2.25-7.04-5.25h3.21Z" style="fill: #62554f; stroke-width: 0px;"/>
      <path d="M286.32,549.67h2.84v-4.88h3.24v4.88h3.63v2.59h-3.63v9.54c0,1.56.4,2.33,1.89,2.33.38,0,.95-.02,1.39-.12v2.38c-.76.28-1.8.31-2.63.31-2.74,0-3.89-1.43-3.89-4.25v-10.2h-2.84v-2.59Z" style="fill: #62554f; stroke-width: 0px;"/>
      <path d="M313.57,558.04c0,4.89-2.83,8.83-8,8.83-4.89,0-7.83-3.72-7.83-8.77s2.91-8.83,8.02-8.83c4.72,0,7.8,3.49,7.8,8.76ZM301.07,558.07c0,3.6,1.75,6.14,4.62,6.14s4.56-2.43,4.56-6.12-1.63-6.15-4.62-6.15-4.55,2.36-4.55,6.14Z" style="fill: #62554f; stroke-width: 0px;"/>
      <path d="M317.23,553.91c0-1.45,0-2.94-.03-4.23h3.15c.08.48.13,2.13.13,2.64.65-1.37,2.02-3.04,5.21-3.04s5.61,2,5.61,6.42v10.78h-3.24v-10.38c0-2.41-.92-4.06-3.39-4.06-2.94,0-4.19,2.16-4.19,5.46v8.99h-3.24v-12.57Z" style="fill: #62554f; stroke-width: 0px;"/>
      <path d="M338.18,558.69c.02,3.16,1.61,5.52,4.36,5.52,2.52,0,3.32-1.25,3.84-2.44h3.26c-.65,2.13-2.46,5.1-7.19,5.1-5.33,0-7.53-4.26-7.53-8.61,0-5.05,2.55-8.99,7.72-8.99,5.49,0,7.3,4.31,7.3,8.02,0,.52,0,.94-.05,1.4h-11.7ZM346.64,556.49c-.03-2.61-1.31-4.72-4.06-4.72s-4.04,1.96-4.31,4.72h8.37Z" style="fill: #62554f; stroke-width: 0px;"/>
    </g>
    <g>
      <path d="M237.46,584.94h-4.88v-1.92h12.04v1.92h-4.88v13.36h-2.28v-13.36Z" style="fill: #938b88; stroke-width: 0px;"/>
      <path d="M252.87,595.77c0,1.03.09,2.22.15,2.53h-2.07c-.09-.24-.15-.79-.18-1.39-.39.72-1.26,1.66-3.4,1.66-2.65,0-3.78-1.73-3.78-3.44,0-2.51,1.98-3.66,5.3-3.66h1.85v-.9c0-.95-.31-2.07-2.28-2.07-1.76,0-2.07.86-2.26,1.72h-2.08c.15-1.63,1.16-3.38,4.42-3.37,2.79,0,4.33,1.14,4.33,3.71v5.23ZM250.76,592.91h-1.71c-2.16,0-3.26.61-3.26,2.09,0,1.1.74,1.91,2.07,1.91,2.56,0,2.9-1.73,2.9-3.66v-.35Z" style="fill: #938b88; stroke-width: 0px;"/>
      <path d="M257.13,595.07c.3,1.16,1.18,1.84,2.62,1.84,1.55,0,2.15-.65,2.15-1.6s-.51-1.43-2.54-1.92c-3.29-.8-3.94-1.81-3.94-3.34s1.16-3.2,4.14-3.2,4.16,1.71,4.3,3.26h-2.08c-.15-.66-.64-1.63-2.31-1.63-1.46,0-1.9.7-1.9,1.39,0,.78.44,1.17,2.45,1.65,3.46.82,4.11,1.98,4.11,3.64,0,1.94-1.53,3.42-4.44,3.42s-4.42-1.5-4.69-3.5h2.14Z" style="fill: #938b88; stroke-width: 0px;"/>
      <path d="M266.43,589.99c0-.97,0-1.97-.02-2.89h2.08c.03.32.09,1.11.08,1.65.52-.97,1.48-1.91,3.23-1.91,1.59,0,2.64.81,3.06,1.95.61-1.03,1.65-1.95,3.55-1.95s3.53,1.1,3.53,4.11v7.36h-2.12v-7.1c0-1.24-.45-2.54-2.1-2.54s-2.46,1.28-2.46,3.21v6.43h-2.12v-7.03c0-1.39-.38-2.6-2.06-2.6s-2.51,1.32-2.51,3.42v6.21h-2.14v-8.31Z" style="fill: #938b88; stroke-width: 0px;"/>
      <path d="M293.54,595.77c0,1.03.09,2.22.15,2.53h-2.07c-.09-.24-.15-.79-.18-1.39-.39.72-1.26,1.66-3.4,1.66-2.65,0-3.78-1.73-3.78-3.44,0-2.51,1.98-3.66,5.3-3.66h1.85v-.9c0-.95-.31-2.07-2.28-2.07-1.76,0-2.07.86-2.26,1.72h-2.08c.15-1.63,1.16-3.38,4.42-3.37,2.79,0,4.33,1.14,4.33,3.71v5.23ZM291.44,592.91h-1.71c-2.16,0-3.26.61-3.26,2.09,0,1.1.74,1.91,2.07,1.91,2.56,0,2.9-1.73,2.9-3.66v-.35Z" style="fill: #938b88; stroke-width: 0px;"/>
      <path d="M296.78,589.92c0-.97,0-1.96-.02-2.82h2.1c.05.32.09,1.42.08,1.76.43-.91,1.35-2.02,3.47-2.02s3.74,1.33,3.74,4.28v7.19h-2.16v-6.92c0-1.61-.61-2.71-2.26-2.71-1.96,0-2.79,1.44-2.79,3.64v5.99h-2.16v-8.38Z" style="fill: #938b88; stroke-width: 0px;"/>
      <path d="M309.33,582.17h2.16v2.48h-2.16v-2.48ZM309.33,587.1h2.16v11.2h-2.16v-11.2Z" style="fill: #938b88; stroke-width: 0px;"/>
      <path d="M323.09,595.77c0,1.03.09,2.22.15,2.53h-2.07c-.09-.24-.15-.79-.18-1.39-.39.72-1.26,1.66-3.4,1.66-2.65,0-3.78-1.73-3.78-3.44,0-2.51,1.98-3.66,5.3-3.66h1.85v-.9c0-.95-.31-2.07-2.28-2.07-1.76,0-2.07.86-2.26,1.72h-2.08c.15-1.63,1.16-3.38,4.42-3.37,2.79,0,4.33,1.14,4.33,3.71v5.23ZM320.98,592.91h-1.71c-2.16,0-3.26.61-3.26,2.09,0,1.1.74,1.91,2.07,1.91,2.56,0,2.9-1.73,2.9-3.66v-.35Z" style="fill: #938b88; stroke-width: 0px;"/>
    </g>
    <g>
      <path d="M356.96,623.36h3.74c2.06,0,3.02,1.08,3.02,2.43,0,1.13-.65,1.87-1.4,2.12.68.22,1.72.9,1.72,2.33,0,1.84-1.4,2.85-3.25,2.85h-3.83v-9.75ZM360.46,627.41c1.41,0,1.96-.56,1.96-1.51,0-.86-.62-1.48-1.76-1.48h-2.42v2.99h2.22ZM358.23,632.04h2.41c1.22,0,2.07-.58,2.07-1.79,0-1.06-.68-1.77-2.32-1.77h-2.16v3.56Z" style="fill: #62554f; stroke-width: 0px;"/>
      <path d="M371.06,631.56c0,.65.06,1.34.1,1.55h-1.17c-.06-.16-.1-.5-.12-.93-.25.47-.81,1.1-2.19,1.1-1.67,0-2.39-1.09-2.39-2.17,0-1.58,1.25-2.31,3.36-2.31h1.21v-.6c0-.63-.2-1.39-1.53-1.39-1.19,0-1.39.59-1.52,1.14h-1.19c.09-.98.7-2.11,2.74-2.11,1.74,0,2.7.71,2.7,2.33v3.39ZM369.87,629.64h-1.15c-1.42,0-2.17.39-2.17,1.39,0,.74.51,1.28,1.38,1.28,1.71,0,1.94-1.15,1.94-2.44v-.23Z" style="fill: #62554f; stroke-width: 0px;"/>
      <path d="M378.77,630.93c-.3,1.22-1.13,2.34-2.94,2.34-1.95,0-3.17-1.41-3.17-3.68,0-2.01,1.14-3.76,3.25-3.76s2.76,1.46,2.85,2.38h-1.21c-.18-.72-.63-1.35-1.66-1.35-1.26,0-1.97,1.08-1.97,2.69s.69,2.7,1.92,2.7c.89,0,1.41-.47,1.7-1.32h1.22Z" style="fill: #62554f; stroke-width: 0px;"/>
      <path d="M381.46,629.39c.6-.7,2.16-2.34,3.12-3.39h1.46l-2.67,2.77,2.98,4.33h-1.43l-2.39-3.55-1.07,1.03v2.52h-1.23v-10.28h1.23v6.57Z" style="fill: #62554f; stroke-width: 0px;"/>
      <path d="M392.77,630.93c-.3,1.22-1.13,2.34-2.94,2.34-1.95,0-3.17-1.41-3.17-3.68,0-2.01,1.14-3.76,3.25-3.76s2.76,1.46,2.85,2.38h-1.21c-.18-.72-.63-1.35-1.66-1.35-1.26,0-1.97,1.08-1.97,2.69s.69,2.7,1.92,2.7c.89,0,1.41-.47,1.7-1.32h1.22Z" style="fill: #62554f; stroke-width: 0px;"/>
      <path d="M400.42,629.54c0,2.05-1.17,3.73-3.34,3.73-2.04,0-3.27-1.57-3.27-3.71s1.21-3.73,3.35-3.73c1.97,0,3.26,1.48,3.26,3.71ZM395.08,629.55c0,1.56.78,2.69,2.05,2.69s2.03-1.08,2.03-2.69-.73-2.7-2.06-2.7-2.03,1.07-2.03,2.69Z" style="fill: #62554f; stroke-width: 0px;"/>
      <path d="M407.72,631.04c0,.69,0,1.65.01,2.07h-1.19c-.03-.19-.04-.62-.05-1.06-.35.79-1.03,1.23-2.15,1.23-1.2,0-2.35-.6-2.35-2.6v-4.67h1.22v4.41c0,.93.29,1.79,1.47,1.79,1.31,0,1.81-.72,1.81-2.5v-3.7h1.23v5.03Z" style="fill: #62554f; stroke-width: 0px;"/>
      <path d="M409.82,627.79c0-.62,0-1.24-.01-1.79h1.19c.03.21.05.96.05,1.17.28-.61.86-1.34,2.24-1.34s2.37.81,2.37,2.7v4.57h-1.23v-4.41c0-1.07-.42-1.8-1.5-1.8-1.34,0-1.88,1.02-1.88,2.45v3.76h-1.23v-5.31Z" style="fill: #62554f; stroke-width: 0px;"/>
      <path d="M416.74,626h1.23v-2.1h1.23v2.1h1.57v1h-1.57v4.16c0,.69.17,1.04.81,1.04.17,0,.42,0,.62-.06v.92c-.3.11-.72.13-1.06.13-1.1,0-1.59-.57-1.59-1.75v-4.45h-1.23v-1Z" style="fill: #62554f; stroke-width: 0px;"/>
      <path d="M422.01,627.93c0-.99,0-1.55-.01-1.93h1.2c.02.2.04.76.04,1.45.37-.96,1.22-1.58,2.39-1.62v1.22c-1.46.04-2.39.8-2.39,2.6v3.45h-1.23v-5.17Z" style="fill: #62554f; stroke-width: 0px;"/>
      <path d="M427.78,626c1.15,3.4,1.78,5.29,1.97,6.01h.01c.23-.8.74-2.43,1.9-6.01h1.24l-2.55,7.43c-.72,2.08-1.26,2.6-2.71,2.6-.22,0-.49-.01-.76-.05v-1.07c.18.02.39.04.59.04.9,0,1.24-.4,1.66-1.58l-2.66-7.38h1.33Z" style="fill: #62554f; stroke-width: 0px;"/>
    </g>
    <rect x="118.63" y="621.25" width="15.41" height="15.41" style="fill: #e8c055; stroke-width: 0px;"/>
    <rect x="211.63" y="621.25" width="15.41" height="15.41" style="fill: #88b052; opacity: .46; stroke-width: 0px;"/>
    <rect x="281.63" y="621.25" width="15.41" height="15.41" style="fill: #3c877b; stroke-width: 0px;"/>
    <rect x="338.63" y="621.25" width="15.41" height="15.41" style="fill: #c78249; stroke-width: 0px;"/>
  </g>
</svg>