<?xml version="1.0" encoding="UTF-8"?>
<svg xmlns="http://www.w3.org/2000/svg" viewBox="0 0 552.68 660.84">
  <g id="background_background">
    <rect x="-.81" y="-1.82" width="552.12" height="663" style="fill: #f4eeec; stroke-width: 0px;"/>
  </g>
  <g id="background">
    <circle cx="281.04" cy="276.67" r="212.44" style="fill: #f4eeec; stroke: #a7a9ab; stroke-miterlimit: 10; stroke-width: .5px;"/>
  </g>
  <g id="guide_circles" data-name="guide circles">
    <circle cx="281.04" cy="276.43" r="176.08" style="fill: none; stroke: #949598; stroke-miterlimit: 10; stroke-width: .5px;"/>
    <circle cx="280.21" cy="276.8" r="105.62" style="fill: none; stroke: #949598; stroke-miterlimit: 10; stroke-width: .5px;"/>
    <circle cx="280.21" cy="276.79" r="140.64" style="fill: none; stroke: #949598; stroke-miterlimit: 10; stroke-width: .5px;"/>
    <circle cx="279.5" cy="276.12" r="70.17" style="fill: none; stroke: #949598; stroke-miterlimit: 10; stroke-width: .5px;"/>
    <line x1="278.69" y1="65.47" x2="278.69" y2="241.69" style="fill: none; stroke: #949598; stroke-miterlimit: 10; stroke-width: .5px;"/>
    <line x1="279.5" y1="312.3" x2="279.5" y2="473.81" style="fill: none; stroke: #949598; stroke-miterlimit: 10; stroke-width: .5px;"/>
    <circle cx="279.5" cy="276.99" r="35.3" style="fill: #f4eeec; stroke: #949598; stroke-miterlimit: 10; stroke-width: .5px;"/>
    <line x1="68.65" y1="276.55" x2="244.19" y2="276.55" style="fill: none; stroke: #949598; stroke-miterlimit: 10; stroke-width: .5px;"/>
    <line x1="314.8" y1="276.99" x2="490.95" y2="276.99" style="fill: none; stroke: #949598; stroke-miterlimit: 10; stroke-width: .5px;"/>
  </g>
  <g id="below_freezing" data-name="below freezing">
    <path d="M320.78,480.52c-5.05-.8-10.91-2.66-26.6-6.92-15.69-4.26-65.16-32.18-110.65-51.33s-84.31-83.52-97.88-114.37c-13.56-30.85-11.22-78.92-11.22-78.92l-.48.09c-3.5,15.3-5.36,31.24-5.36,47.6,0,117.33,95.11,212.44,212.44,212.44,18.11,0,35.69-2.27,52.47-6.54l.04-1.26s-7.71,0-12.77-.8Z" style="fill: #fff; stroke-width: 0px;"/>
  </g>
  <g id="above_70" data-name="above 70">
    <path d="M493.48,276.46c0-117.33-95.11-212.44-212.44-212.44-19.63,0-38.63,2.67-56.67,7.66,1.21,0,26.44-.04,49.35,9.56,23.48,9.83,58.15,27.03,81.08,56.51,22.93,29.48,66.61,80.81,83.26,115.2,16.65,34.4,25.93,70.43,23.2,88.45s-14.47,60.33-22.11,71.8c-7.64,11.47-10.1,14.47-10.1,14.47l1.29-.08c38.98-38.51,63.14-91.99,63.14-151.11Z" style="fill: #f2c1b1; stroke-width: 0px;"/>
  </g>
  <g id="Months">
    <g>
      <path d="M334.82,37.97c0,2.68-1.02,3.68-3.11,3.68-.47,0-.96-.04-1.31-.12v-1.44c.22.04.73.08,1.11.08,1.37,0,1.56-1,1.56-2.11v-8.37h1.75v8.3Z" style="fill: #a39f9e; stroke-width: 0px;"/>
      <path d="M343.77,39.53c0,.79.07,1.71.12,1.96h-1.6c-.07-.19-.12-.61-.14-1.08-.3.56-.98,1.28-2.63,1.28-2.05,0-2.92-1.34-2.92-2.66,0-1.94,1.53-2.83,4.09-2.83h1.43v-.7c0-.73-.24-1.6-1.76-1.6-1.36,0-1.6.66-1.75,1.33h-1.61c.12-1.26.9-2.61,3.41-2.6,2.15,0,3.34.88,3.34,2.86v4.04ZM342.14,37.32h-1.32c-1.67,0-2.52.47-2.52,1.62,0,.85.57,1.48,1.6,1.48,1.97,0,2.24-1.34,2.24-2.83v-.27Z" style="fill: #a39f9e; stroke-width: 0px;"/>
      <path d="M346.26,35.01c0-.75,0-1.52-.02-2.18h1.62c.04.25.07,1.1.07,1.36.33-.7,1.04-1.56,2.68-1.56s2.89,1.03,2.89,3.3v5.55h-1.67v-5.35c0-1.24-.47-2.09-1.75-2.09-1.51,0-2.16,1.11-2.16,2.81v4.63h-1.67v-6.47Z" style="fill: #a39f9e; stroke-width: 0px;"/>
    </g>
    <path d="M449.5,92.92h7.71v1.48h-5.99v3.65h5.61v1.48h-5.61v5.19h-1.72v-11.81Z" style="fill: #a39f9e; stroke-width: 0px;"/>
    <path d="M519.51,208.66c0-2.16.03-4.39.08-5.65h-.07c-.51,2.01-2.29,6.86-3.6,10.57h-1.55c-.99-3.06-2.83-8.51-3.35-10.59h-.06c.09,1.37.13,3.95.13,5.98v4.62h-1.64v-11.81h2.61c1.26,3.55,2.79,8.12,3.18,9.67h.03c.28-1.21,2.09-6.2,3.41-9.67h2.53v11.81h-1.71v-4.92Z" style="fill: #a39f9e; stroke-width: 0px;"/>
    <path d="M513.43,335.97l-1.2,3.39h-1.74l4.17-11.81h2.17l4.35,11.81h-1.86l-1.25-3.39h-4.64ZM517.64,334.49c-1.07-2.99-1.67-4.62-1.93-5.55h-.02c-.29,1.03-.96,3-1.82,5.55h3.78Z" style="fill: #a39f9e; stroke-width: 0px;"/>
    <path d="M456.47,444.14c0-2.16.03-4.39.08-5.65h-.07c-.51,2.01-2.29,6.86-3.6,10.57h-1.55c-.99-3.06-2.83-8.51-3.35-10.59h-.06c.09,1.37.13,3.95.13,5.98v4.62h-1.64v-11.81h2.61c1.26,3.55,2.79,8.12,3.18,9.67h.03c.28-1.21,2.09-6.2,3.41-9.67h2.53v11.81h-1.71v-4.92Z" style="fill: #a39f9e; stroke-width: 0px;"/>
    <path d="M344.17,510.89c0,2.68-1.02,3.68-3.11,3.68-.47,0-.96-.04-1.31-.12v-1.44c.22.04.73.08,1.11.08,1.37,0,1.56-1,1.56-2.11v-8.37h1.75v8.3Z" style="fill: #a39f9e; stroke-width: 0px;"/>
    <path d="M217.27,510.89c0,2.68-1.02,3.68-3.11,3.68-.47,0-.96-.04-1.31-.12v-1.44c.22.04.73.08,1.11.08,1.37,0,1.56-1,1.56-2.11v-8.37h1.75v8.3Z" style="fill: #a39f9e; stroke-width: 0px;"/>
    <path d="M105.17,445.67l-1.2,3.39h-1.74l4.17-11.81h2.17l4.35,11.81h-1.86l-1.25-3.39h-4.64ZM109.38,444.18c-1.07-2.99-1.67-4.62-1.93-5.55h-.02c-.29,1.03-.96,3-1.82,5.55h3.78Z" style="fill: #a39f9e; stroke-width: 0px;"/>
    <path d="M41.9,336.35c.31,1.37,1.26,2.09,2.9,2.09,1.75,0,2.45-.8,2.45-1.87,0-1.14-.58-1.76-2.88-2.31-2.86-.69-3.8-1.68-3.8-3.33,0-1.81,1.34-3.23,4-3.23,2.87,0,4.05,1.64,4.21,3.22h-1.78c-.19-.99-.8-1.84-2.49-1.84-1.36,0-2.13.61-2.13,1.68s.63,1.47,2.67,1.96c3.38.82,4,2.12,4,3.67,0,1.95-1.45,3.44-4.38,3.44s-4.31-1.59-4.56-3.47h1.78Z" style="fill: #a39f9e; stroke-width: 0px;"/>
    <path d="M49.17,207.86c0,3.25-1.85,6.13-5.59,6.13-3.52,0-5.46-2.69-5.46-6.07s2.01-6.07,5.6-6.07c3.35,0,5.45,2.48,5.45,6.01ZM39.95,207.87c0,2.5,1.25,4.65,3.7,4.65,2.65,0,3.69-2.19,3.69-4.63s-1.18-4.56-3.69-4.56-3.7,2.07-3.7,4.55Z" style="fill: #a39f9e; stroke-width: 0px;"/>
    <path d="M102.7,103.38v-11.81h2.28c1.65,2.74,5.15,8.4,5.79,9.69h.02c-.12-1.46-.11-3.36-.11-5.29v-4.4h1.64v11.81h-2.15c-1.5-2.51-5.19-8.68-5.9-10.01h-.02c.08,1.29.09,3.37.09,5.5v4.51h-1.65Z" style="fill: #a39f9e; stroke-width: 0px;"/>
    <path d="M211.93,28.78h4.31c3.34,0,5.59,2.26,5.59,5.78s-2.19,6.03-5.65,6.03h-4.24v-11.81ZM213.68,39.12h2.37c2.68,0,3.94-1.93,3.94-4.53,0-2.25-1.15-4.34-3.93-4.34h-2.38v8.87Z" style="fill: #a39f9e; stroke-width: 0px;"/>
  </g>
  <g id="lodging">
    <path d="M215.22,213.91c-2.46,1.88-4.87,4.11-7.23,6.81,0,0-11.91,19.4-11.68,26.89l83.26,28.84-64.35-62.53Z" style="fill: none; stroke-width: 0px;"/>
    <path d="M371.27,250.29l-89.98,24.89,64.77-65.89c-7.81-9.17-16.44-17.3-25.71-22.54-4.97-2.81-9.24-4.5-13.01-5.38l-27.77,95.06-83.26-28.84s0,.1,0,.15c.39,7.37,3.03,17.9,17.64,28.96,4.86,3.68,8.65,8.23,11.81,13.06l48.03-10.86-34.45,36.9c.36.63.72,1.26,1.08,1.85,3.94,6.37,8.77,16.57,17.67,24.31l20.79-60.8,21.42,70.65c17.21-2.71,23.05-11.65,28.46-15.47,1.61-1.13,4.38-2.97,7.75-5.27l-54.71-53.31,88.19,23.26c4.72-10.21,5.96-32.8,1.28-50.74Z" style="fill: none; stroke-width: 0px;"/>
    <path d="M257.95,199.44c-3.08,1.05-6.33,1.97-9.77,2.67-13.01,2.64-23.45,4.55-32.96,11.8l64.35,62.53-21.62-77Z" style="fill: none; stroke-width: 0px;"/>
    <path d="M320.36,186.75c9.27,5.24,17.9,13.37,25.71,22.54l5.23-5.33c-19.02-22.14-32.58-28.74-41.58-30.71l-2.37,8.12c3.77.88,8.05,2.57,13.01,5.38Z" style="fill: #e8c055; stroke-width: 0px;"/>
    <path d="M213.95,276.72c-14.61-11.06-17.25-21.59-17.64-28.96,0-.05,0-.1,0-.15l-5.14-1.78c-.86,4.1-1.08,6.71-1.08,6.71.26,4.09,2.3,8.7,4.35,11.26,1.71,2.14,19.85,14.72,29.53,26.39l1.79-.41c-3.16-4.83-6.94-9.38-11.81-13.06Z" style="fill: #e8c055; stroke-width: 0px;"/>
    <path d="M369.99,301.03l6.11,1.61c6.36-12.79,10.65-32.07,3.09-54.54l-7.92,2.19c4.68,17.94,3.43,40.53-1.28,50.74Z" style="fill: #e8c055; stroke-width: 0px;"/>
    <path d="M248.18,202.11c3.44-.7,6.69-1.62,9.77-2.67l-1.48-5.27c-.6.3-1.15.57-1.64.78-7.77,3.43-29.84,2.58-44.31,14.4l4.7,4.56c9.51-7.25,19.95-9.15,32.96-11.8Z" style="fill: #e8c055; stroke-width: 0px;"/>
    <path d="M240.42,317.66c-.37-.59-.72-1.22-1.08-1.85l-1.26,1.35c3.14,6.71,6.17,12.76,9.6,17.78,2.37,3.46,5.33,7.12,9.24,10.48l1.18-3.44c-8.9-7.74-13.73-17.94-17.67-24.31Z" style="fill: #e8c055; stroke-width: 0px;"/>
    <path d="M328.76,336.36c-5.41,3.82-11.25,12.76-28.46,15.47l1.6,5.28c16.31-2.99,25.87-14.14,32.54-19.35,1.58-1.23,3.27-2.5,5.05-3.77l-2.98-2.9c-3.37,2.3-6.14,4.14-7.75,5.27Z" style="fill: #e8c055; stroke-width: 0px;"/>
    <path d="M207.99,220.72c2.37-2.7,4.77-4.93,7.23-6.81l-4.7-4.56c-1.73,1.41-3.36,2.99-4.83,4.79-9.01,11.02-12.91,23.99-14.53,31.68l5.14,1.78c-.23-7.48,11.68-26.89,11.68-26.89Z" style="fill: #e8c055; opacity: .76; stroke-width: 0px;"/>
    <path d="M285.3,185.73c6.07-3.5,12.41-6.59,22.05-4.35l2.37-8.12c-3.67-.8-6.59-.83-8.81-.83-8.46,0-34.26,16.66-44.43,21.74l1.48,5.27c11.59-3.96,20.67-9.87,27.34-13.71Z" style="fill: #e8c055; opacity: .76; stroke-width: 0px;"/>
    <path d="M365.09,235.38c2.69,4.17,4.72,9.32,6.18,14.92l7.92-2.19c-2.77-8.22-7.11-16.86-13.53-25.78-5.1-7.08-9.88-13.15-14.36-18.36l-5.23,5.33c7.07,8.3,13.46,17.45,19.03,26.09Z" style="fill: #e8c055; opacity: .76; stroke-width: 0px;"/>
    <path d="M376.1,302.64l-6.11-1.61c-.22.48-.45.94-.68,1.36-5.21,9.32-22.07,21.37-32.8,28.69l2.98,2.9c7.43-5.33,16.28-10.88,24.13-15.43,3.17-1.84,8.28-7.46,12.48-15.92Z" style="fill: #e8c055; opacity: .76; stroke-width: 0px;"/>
    <path d="M285.7,352.55c-12.29-.5-21.06-4.87-27.62-10.58l-1.18,3.44c7.07,6.07,17.25,11.15,32.74,12.3,4.47.33,8.53.07,12.25-.61l-1.6-5.28c-4.15.66-8.96.95-14.59.72Z" style="fill: #e8c055; opacity: .76; stroke-width: 0px;"/>
    <path d="M225.76,289.77l-1.79.41c1.88,2.27,3.45,4.51,4.51,6.63,3.59,7.18,6.64,14.06,9.59,20.36l1.26-1.35c-4.1-7.27-7.75-17.13-13.57-26.04Z" style="fill: #e8c055; opacity: .76; stroke-width: 0px;"/>
  </g>
  <g id="backcountry">
    <path d="M227.22,258.31c-1.02,4.59,1.25,8.41,3.04,11.4,2.45,4.09,12.56,13.08,15.63,18.08,3.06,5.01,7.36,11.85,7.36,11.85,6.44,10.32,27.38,19.61,50.06,18.29,20.81-1.22,29.62-23.6,30.95-32.08,1.33-8.48-2.66-38.51-10.83-52-8.17-13.48-32.08-20.63-46.38-22.58-14.3-1.94-21.35,5.82-26.25,12.56-2.47,3.4-6.39,8.97-10.37,14.56l39.14,38.04-52.35-18.13Z" style="fill: none; stroke-width: 0px;"/>
    <path d="M229.85,252.95c2.69-3.5,6.66-9.03,10.58-14.55l-2.23-2.16c-4.44,6.28-11.97,14.76-14.35,20.9l3.37,1.17c.38-1.68,1.18-3.47,2.63-5.36Z" style="fill: #c78249; opacity: .76; stroke-width: 0px;"/>
    <path d="M238.25,236.18s-.03.04-.04.06l2.23,2.16c3.98-5.6,7.9-11.17,10.37-14.56,2.74-3.76,6.14-7.84,11.1-10.37l-1.58-5.63c-9.07,5.3-15.31,18.77-22.06,28.35Z" style="fill: #c78249; stroke-width: 0px;"/>
    <path d="M267.44,205.58c-2.57.15-4.93.96-7.13,2.24l1.58,5.63c3.93-2.01,8.83-3.05,15.16-2.19,5.72.78,12.97,2.39,20.13,4.9l1.59-5.46c-10.31-3.95-21.76-5.69-31.34-5.13Z" style="fill: #c78249; opacity: .76; stroke-width: 0px;"/>
    <path d="M309.83,216.14c-3.41-2.13-7.15-3.94-11.06-5.43l-1.59,5.46c10.35,3.63,20.52,9.15,25.64,16.77l2.83-2.88c-4.19-5.58-9.62-10.04-15.82-13.91Z" style="fill: #c78249; stroke-width: 0px;"/>
    <path d="M334.06,250.77c-1.24-8.4-4.2-15.12-8.4-20.71l-2.83,2.88c.2.3.42.6.6.91,4,6.6,7,17.17,8.86,27.23l3.32-.92c-.55-3.29-1.11-6.46-1.54-9.39Z" style="fill: #c78249; opacity: .76; stroke-width: 0px;"/>
    <path d="M335.6,260.16l-3.32.92c1.94,10.49,2.65,20.44,1.97,24.76-.23,1.45-.68,3.31-1.37,5.4l3.72.98c2.35-10.25.71-21.82-1.01-32.07Z" style="fill: #c78249; stroke-width: 0px;"/>
    <path d="M329.24,306.67c3.88-4.23,6.15-9.16,7.36-14.45l-3.72-.98c-2.23,6.77-7,15.96-15.08,21.61l2.13,2.07c3.11-2.12,6.18-4.84,9.31-8.26Z" style="fill: #c78249; opacity: .76; stroke-width: 0px;"/>
    <path d="M319.93,314.93l-2.13-2.07c-4,2.79-8.79,4.73-14.5,5.06-4.58.27-9.08.1-13.41-.42l.81,2.66c11.81,1.79,20.72.57,29.23-5.23Z" style="fill: #c78249; stroke-width: 0px;"/>
    <path d="M290.7,320.16l-.81-2.66c-7.94-.95-15.29-3.09-21.4-5.93l-.64,1.88c3.8,1.92,8.28,3.62,13.57,4.88,3.3.78,6.37,1.4,9.28,1.84Z" style="fill: #c78249; opacity: .76; stroke-width: 0px;"/>
    <path d="M230.26,269.7c-1.79-2.99-4.07-6.8-3.04-11.4l-3.37-1.17c-.21.53-.39,1.06-.51,1.55-1.55,6.21,3.73,11.96,11.18,18.79,3.07,2.82,5.61,5.76,7.73,8.56l2.06-.47c-4.06-5.12-11.92-12.34-14.05-15.87Z" style="fill: #c78249; stroke-width: 0px;"/>
    <path d="M253.74,300.38l-1.07,1.14c3.03,3.67,7.81,8.2,15.17,11.92l.64-1.88c-6.67-3.1-11.87-7.04-14.75-11.19Z" style="fill: #c78249; stroke-width: 0px;"/>
    <path d="M253.25,299.63s-4.29-6.84-7.36-11.85c-.41-.67-.95-1.42-1.58-2.21l-2.06.47c3.01,3.99,5.16,7.67,6.71,10.23.74,1.22,1.92,3.09,3.71,5.25l1.07-1.14c-.17-.25-.34-.5-.49-.74Z" style="fill: #c78249; opacity: .76; stroke-width: 0px;"/>
  </g>
  <g id="rv">
    <path d="M196.13,247.54c.88,5.2,2.56,9.52,4.85,12.19,3.56,4.14,20.92,16.8,25.12,19.36s11.86,9.39,18.12,17.71,12.11,11.86,21.09,18.53c8.98,6.67,21.75,24.22,23.81,25.76,2.06,1.55,10.82,15.29,40.72,4.12,29.89-11.17,37.8-38.14,40.54-48.45s-5.84-45.18-21.13-65.28c-15.29-20.1-39-37.45-73.36-43.47-34.36-6.01-64.06,7.1-69.41,15.12-.33.49-.63.95-.92,1.38l74.02,71.92-83.45-28.9Z" style="fill: none; stroke-width: 0px;"/>
    <path d="M197.44,223.65c3.06-11.33,3.89-12.8,8.12-19.13l-6.4-6.22c-9.39,11.85-12.17,28.4-9.63,46.61.02.13.04.24.06.37l6.54,2.26c-1.19-7.01-.93-15.6,1.31-23.89Z" style="fill: #3c877b; opacity: .77; stroke-width: 0px;"/>
    <path d="M204.19,192.95c-1.86,1.65-3.52,3.44-5.04,5.35l6.4,6.22c.29-.44.6-.89.92-1.38,4.19-6.27,23.28-15.67,47.86-16.57l-1.78-6.35c-22.19.63-41.77,6.9-48.36,12.74Z" style="fill: #3c877b; stroke-width: 0px;"/>
    <path d="M293.67,186.68c-13.11-5.16-27.6-6.86-41.11-6.47l1.78,6.35c6.83-.25,14.08.15,21.55,1.46,9.95,1.74,19,4.44,27.22,7.87l1.35-4.61c-3.43-1.58-7.01-3.11-10.78-4.6Z" style="fill: #3c877b; opacity: .77; stroke-width: 0px;"/>
    <path d="M304.45,191.28l-1.35,4.61c13.64,5.7,24.96,13.45,34.23,22.28l3.21-3.26c-9.48-9.01-21.24-16.79-36.09-23.63Z" style="fill: #3c877b; stroke-width: 0px;"/>
    <path d="M361.02,242.21c-5.38-10.23-12.02-19.26-20.47-27.3l-3.21,3.26c4.43,4.22,8.4,8.69,11.91,13.31,4.7,6.18,8.76,13.75,12.06,21.57l4.51-1.25c-1.51-3.21-3.13-6.42-4.8-9.6Z" style="fill: #3c877b; opacity: .77; stroke-width: 0px;"/>
    <path d="M365.81,251.8l-4.51,1.25c7.44,17.64,10.98,36.57,9.07,43.71-.31,1.16-.69,2.53-1.15,4.07l6.6,1.74c3.3-16.29-1.97-33.69-10.01-50.77Z" style="fill: #3c877b; stroke-width: 0px;"/>
    <path d="M371.59,314.7c2.03-3.96,3.4-8.01,4.24-12.13l-6.6-1.74c-2.93,9.71-9.44,26.01-25.59,37.2l4.46,4.35c7.59-4.74,15.72-12.5,23.49-27.68Z" style="fill: #3c877b; opacity: .77; stroke-width: 0px;"/>
    <path d="M337.52,347.64c3.33-1.37,6.89-2.96,10.58-5.26l-4.46-4.35c-3.99,2.76-8.55,5.22-13.8,7.18-14.88,5.56-24.53,4.94-30.71,2.73l1.44,4.74c12.21,3.78,28.12-1.41,36.97-5.04Z" style="fill: #3c877b; stroke-width: 0px;"/>
    <path d="M289.12,341.09c-1.95-1.46-13.48-17.24-22.32-24.58l-.52,1.52c3.34,2.85,6.1,5.76,9.93,10.26,6.06,7.13,6.6,14.27,19.08,22.03,1.64,1.02,3.41,1.79,5.26,2.37l-1.44-4.74c-6.24-2.23-8.97-6.08-10-6.86Z" style="fill: #3c877b; opacity: .77; stroke-width: 0px;"/>
    <path d="M226.1,279.08c-4.2-2.55-21.56-15.22-25.12-19.36-2.29-2.66-3.97-6.99-4.85-12.19l-6.54-2.26c3.13,20.85,23.61,28.37,30.62,32.09,5.19,2.76,9.51,5.96,14.24,10.44l1.64-.37c-3.86-3.88-7.52-6.86-9.98-8.36Z" style="fill: #3c877b; stroke-width: 0px;"/>
    <path d="M250.51,303.84l-.44.47c3,3.11,6.04,5.97,9.46,8.46,2.66,1.94,4.8,3.59,6.75,5.25l.52-1.52c-.51-.42-1-.82-1.49-1.18-5.97-4.44-10.55-7.49-14.8-11.49Z" style="fill: #3c877b; stroke-width: 0px;"/>
    <path d="M244.22,296.79c-2.59-3.44-5.41-6.62-8.14-9.35l-1.64.37c1.69,1.6,3.43,3.37,5.29,5.34,3.71,3.94,7,7.71,10.34,11.16l.44-.47c-2.14-2.01-4.19-4.26-6.29-7.05Z" style="fill: #3c877b; opacity: .77; stroke-width: 0px;"/>
  </g>
  <g id="tent">
    <path d="M150.35,231.68c-.39,4.7-.13,8.72.78,11.66,3.63,11.81,33.29,20.65,44.11,23.96,10.82,3.3,27.26,11.98,33.46,16.11s15.2,16.77,15.2,16.77c6.05,7.71,14.06,13.18,15.94,14.58s9.11,5.45,16.21,15.67c9.18,13.2,14.75,21.13,25.04,30.44,8.66,7.83,28.24,9.49,56.84,6.17,28.6-3.32,38.38-14.34,64.6-38.4,26.22-24.05,25.98-82.02,15.39-115.45s-32.95-66.87-80.1-86.35-73.87-11.18-113.78,3.28c-36.46,13.21-51.4,28.2-67.37,46.34l102.89,99.99-129.22-44.75Z" style="fill: none; stroke-width: 0px;"/>
    <path d="M172.11,181.68c1.55-1.77,3.06-3.51,4.57-5.23l-6.52-6.34c-17.63,22.42-24.4,44.39-26.05,59.4l6.24,2.16c1.18-14.19,8.31-34.58,21.76-50Z" style="fill: #88b052; opacity: .76; stroke-width: 0px;"/>
    <path d="M177.53,161.43c-2.65,2.9-5.09,5.8-7.36,8.69l6.52,6.34c15.21-17.29,29.5-31.71,62.34-44.45l-2.61-9.29c-23.08,9.66-44.36,22.85-58.89,38.72Z" style="fill: #88b052; stroke-width: 0px;"/>
    <path d="M326.13,104.9c-25.47-1.59-59.18,5.02-89.72,17.81l2.61,9.29c1.63-.63,3.3-1.27,5.03-1.89,30.04-10.88,52.62-18.27,82.06-12.95l3.5-11.98c-1.16-.11-2.32-.21-3.48-.28Z" style="fill: #88b052; opacity: .76; stroke-width: 0px;"/>
    <path d="M329.61,105.18l-3.5,11.98c9.67,1.75,20.07,4.86,31.72,9.67,17.52,7.24,31.62,16.41,42.96,26.79l10.63-10.81c-21.98-20.75-51.61-34.87-81.81-37.63Z" style="fill: #88b052; stroke-width: 0px;"/>
    <path d="M435.43,173.73c-6.11-11.33-14.32-21.77-24.02-30.92l-10.63,10.81c19.18,17.55,30.49,38.55,37.14,59.56,1.68,5.3,3.09,11.22,4.19,17.52l12.28-3.4c-3.8-18.96-10.44-37.78-18.95-53.57Z" style="fill: #88b052; opacity: .76; stroke-width: 0px;"/>
    <path d="M450.71,300.07c8.71-19.17,9.01-46.1,3.67-72.77l-12.28,3.4c4.88,28.12,3.3,63.89-10.44,86.59l8.23,2.17c4.16-6.25,7.81-12.78,10.81-19.39Z" style="fill: #88b052; stroke-width: 0px;"/>
    <path d="M439.9,319.46l-8.23-2.17c-2.6,4.29-5.63,8.12-9.14,11.34-21.79,19.99-32.24,30.98-51.56,36.02l4.5,4.39c25.5-6.25,48.72-25.98,64.43-49.58Z" style="fill: #88b052; opacity: .76; stroke-width: 0px;"/>
    <path d="M370.96,364.66c-3.92,1.02-8.21,1.81-13.03,2.37-26.1,3.03-44.69,1.91-54.32-4.26l1.02,3.38c15.23,7.98,40.36,8.85,67.14,3.71,1.23-.24,2.46-.52,3.68-.82l-4.5-4.39Z" style="fill: #88b052; stroke-width: 0px;"/>
    <path d="M301.09,360.86c-10.29-9.31-15.86-17.24-25.04-30.44-3.59-5.17-7.22-8.75-10.17-11.22l-.59,1.72c2.75,2.24,5.08,4.19,6.33,5.41,4.12,4.03,11.3,17.33,23.29,32.14,2.47,3.06,5.78,5.61,9.74,7.68l-1.02-3.38c-.92-.59-1.77-1.23-2.53-1.91Z" style="fill: #88b052; opacity: .76; stroke-width: 0px;"/>
    <path d="M228.7,283.4c-6.2-4.13-22.63-12.8-33.46-16.11-10.82-3.3-40.48-12.14-44.11-23.96-.9-2.94-1.17-6.96-.78-11.66l-6.24-2.16c-.85,7.72-.35,13.61.7,16.77,3.37,10.11,28.4,17.66,48.55,23.22,20.16,5.55,33.31,13.3,38.7,18.07.22.19.44.4.67.62l1.12-.25c-1.77-1.84-3.56-3.47-5.16-4.54Z" style="fill: #88b052; stroke-width: 0px;"/>
    <path d="M248.82,305.65l-.87.93c3.01,2.95,11.21,9.35,17.33,14.34l.59-1.72c-2.88-2.41-5.12-3.75-6.04-4.45-1.39-1.04-6.17-4.33-11.01-9.1Z" style="fill: #88b052; stroke-width: 0px;"/>
    <path d="M243.9,300.17s-4.96-6.95-10.04-12.23l-1.12.25c5.52,5.25,14.94,18.11,14.94,18.11.08.08.19.18.28.27l.87-.93c-1.68-1.66-3.37-3.49-4.92-5.48Z" style="fill: #88b052; opacity: .76; stroke-width: 0px;"/>
  </g>
  <g id="Count">
    <g>
      <path d="M258.76,496.81v-.17c0-2.77,1.69-5.5,5.53-8.38,2.89-2.19,3.69-2.89,3.69-4.85,0-1.8-.94-3.1-3.03-3.1s-3.12,1.15-3.49,3.28h-2.69c.31-3.13,2.32-5.54,6.17-5.54,4.25,0,5.85,2.69,5.85,5.3,0,2.77-1.18,3.9-4.58,6.48-2.49,1.89-3.76,3.29-4.19,4.58h9.49l-.38,2.39h-12.38Z" style="fill: #62554f; stroke-width: 0px;"/>
      <path d="M285.39,480.74h-7.64c-.16,1.39-.59,3.98-.76,4.93.76-.81,1.94-1.39,3.76-1.39,3.42,0,5.57,2.4,5.57,6.12s-1.9,6.75-6.46,6.75c-3.36,0-5.8-1.83-6.26-4.99h2.78c.41,1.6,1.56,2.76,3.57,2.76,2.39,0,3.57-1.71,3.57-4.31,0-2.29-.93-4.03-3.41-4.03-2.13,0-3,.9-3.61,2.3l-2.54-.43c.54-2.4,1.26-7.7,1.54-10.06h10.3l-.39,2.35Z" style="fill: #62554f; stroke-width: 0px;"/>
      <path d="M292.36,489.2c1.17-1.41,4.06-4.5,6-6.65h3.24l-5.29,5.52,5.88,8.73h-3.19l-4.56-6.97-2.08,2.01v4.96h-2.75v-20.53h2.75v12.93Z" style="fill: #62554f; stroke-width: 0px;"/>
    </g>
    <g>
      <path d="M135.55,627.66h1.29v8.64h5.08l-.18,1.11h-6.2v-9.75Z" style="fill: #62554f; stroke-width: 0px;"/>
      <path d="M149.34,633.84c0,2.05-1.17,3.73-3.34,3.73-2.04,0-3.27-1.57-3.27-3.71s1.21-3.73,3.35-3.73c1.97,0,3.26,1.48,3.26,3.71ZM143.99,633.85c0,1.56.78,2.69,2.05,2.69s2.03-1.08,2.03-2.69-.73-2.7-2.06-2.7-2.03,1.07-2.03,2.69Z" style="fill: #62554f; stroke-width: 0px;"/>
      <path d="M156.93,627.12v8.28c0,.67,0,1.32.01,2.01h-1.18c-.03-.19-.06-.73-.06-1.01-.35.74-1.07,1.18-2.23,1.18-1.83,0-2.95-1.48-2.95-3.65s1.21-3.79,3.17-3.79c1.26,0,1.82.51,2.01.91v-3.92h1.23ZM151.79,633.89c0,1.72.82,2.64,1.93,2.64,1.66,0,2.03-1.23,2.03-2.78s-.33-2.58-1.93-2.58c-1.25,0-2.03.99-2.03,2.71Z" style="fill: #62554f; stroke-width: 0px;"/>
      <path d="M164.98,636.72c0,2.29-.92,3.62-3.33,3.62-2.25,0-2.88-1.26-3-2.2h1.4c.2.72.77,1.12,1.66,1.12,1.55,0,1.92-.98,1.92-2.57v-.53c-.38.76-1.02,1.2-2.19,1.2-1.78,0-2.95-1.45-2.95-3.51,0-2.31,1.35-3.75,3.09-3.75,1.33,0,1.9.63,2.05,1.07.01-.3.05-.76.06-.91h1.3c0,.46-.02,1.37-.02,2.06v4.39ZM159.93,633.79c0,1.45.75,2.41,1.86,2.41,1.47,0,1.89-.99,1.89-2.5s-.38-2.45-1.85-2.45c-1.23,0-1.9,1.02-1.9,2.54Z" style="fill: #62554f; stroke-width: 0px;"/>
      <path d="M167.01,627.13h1.38v1.58h-1.38v-1.58ZM167.01,630.27h1.38v7.13h-1.38v-7.13Z" style="fill: #62554f; stroke-width: 0px;"/>
      <path d="M170.43,632.07c0-.62,0-1.25-.01-1.8h1.34c.03.21.05.91.05,1.12.28-.58.86-1.29,2.21-1.29s2.38.85,2.38,2.72v4.58h-1.38v-4.41c0-1.02-.39-1.72-1.44-1.72-1.25,0-1.78.92-1.78,2.32v3.81h-1.38v-5.33Z" style="fill: #62554f; stroke-width: 0px;"/>
      <path d="M184.41,636.72c0,2.29-.92,3.62-3.33,3.62-2.25,0-2.88-1.26-3-2.2h1.4c.2.72.77,1.12,1.66,1.12,1.55,0,1.92-.98,1.92-2.57v-.53c-.38.76-1.02,1.2-2.19,1.2-1.78,0-2.95-1.45-2.95-3.51,0-2.31,1.35-3.75,3.09-3.75,1.33,0,1.9.63,2.05,1.07.01-.3.05-.76.06-.91h1.3c0,.46-.02,1.37-.02,2.06v4.39ZM179.36,633.79c0,1.45.75,2.41,1.86,2.41,1.47,0,1.89-.99,1.89-2.5s-.38-2.45-1.85-2.45c-1.23,0-1.9,1.02-1.9,2.54Z" style="fill: #62554f; stroke-width: 0px;"/>
    </g>
    <g>
      <path d="M231.04,629.36h-3.15v-1.11h7.6v1.11h-3.15v8.64h-1.3v-8.64Z" style="fill: #62554f; stroke-width: 0px;"/>
      <path d="M235.97,634.67c0,1.44.74,2.47,1.94,2.47,1.12,0,1.49-.58,1.71-1.1h1.24c-.28.91-1.04,2.12-2.99,2.12-2.23,0-3.14-1.82-3.14-3.64,0-2.11,1.06-3.8,3.22-3.8,2.29,0,3.04,1.84,3.04,3.35,0,.22,0,.4-.02.59h-5.01ZM239.76,633.81c-.01-1.17-.6-2.11-1.82-2.11s-1.8.87-1.92,2.11h3.74Z" style="fill: #62554f; stroke-width: 0px;"/>
      <path d="M242.58,632.69c0-.62,0-1.24-.01-1.79h1.19c.03.21.05.96.05,1.17.28-.61.86-1.34,2.24-1.34s2.37.81,2.37,2.7v4.57h-1.23v-4.41c0-1.07-.42-1.8-1.5-1.8-1.34,0-1.88,1.02-1.88,2.45v3.76h-1.23v-5.31Z" style="fill: #62554f; stroke-width: 0px;"/>
      <path d="M249.5,630.9h1.23v-2.1h1.23v2.1h1.57v1h-1.57v4.16c0,.69.17,1.04.81,1.04.17,0,.42,0,.62-.06v.92c-.3.11-.72.13-1.06.13-1.1,0-1.59-.57-1.59-1.75v-4.45h-1.23v-1Z" style="fill: #62554f; stroke-width: 0px;"/>
    </g>
    <g>
      <path d="M301.07,632.81v4.29h-1.28v-9.75h3.81c2,0,3.07,1.09,3.07,2.61,0,1.27-.73,2.03-1.66,2.29.79.21,1.49.81,1.49,2.5v.42c0,.67-.03,1.52.13,1.93h-1.26c-.18-.42-.16-1.18-.16-2.09v-.21c0-1.39-.39-1.99-2.14-1.99h-1.99ZM301.07,631.73h2.12c1.49,0,2.14-.56,2.14-1.66,0-1.04-.68-1.62-2-1.62h-2.26v3.28Z" style="fill: #62554f; stroke-width: 0px;"/>
      <path d="M311.34,637.11l-3.55-9.75h1.39l1.72,4.86c.5,1.43,1,2.87,1.22,3.76h.03c.21-.8.76-2.3,1.27-3.72l1.79-4.91h1.33l-3.67,9.75h-1.53Z" style="fill: #62554f; stroke-width: 0px;"/>
    </g>
    <g>
      <path d="M267.35,562.87c-1,3.96-3.96,6.9-9.27,6.9-6.93,0-10.39-5.19-10.39-11.68s3.48-11.87,10.53-11.87c5.54,0,8.48,3.18,9.13,7.01h-3.4c-.76-2.36-2.33-4.22-5.86-4.22-4.87,0-6.85,4.42-6.85,8.97s1.85,9,6.98,9c3.48,0,4.93-2.05,5.71-4.11h3.42Z" style="fill: #62554f; stroke-width: 0px;"/>
      <path d="M270.8,557.24c0-2.22-.02-3.57-.03-4.56h3.18c.05.45.1,1.84.1,3.34.85-2.21,2.82-3.66,5.61-3.73v3.19c-3.43.07-5.61,1.69-5.61,6.01v8h-3.24v-12.24Z" style="fill: #62554f; stroke-width: 0px;"/>
      <path d="M294.91,565.68c0,1.54.13,3.33.23,3.8h-3.1c-.13-.37-.23-1.18-.27-2.09-.59,1.09-1.89,2.49-5.1,2.49-3.98,0-5.67-2.6-5.67-5.16,0-3.77,2.97-5.49,7.95-5.49h2.78v-1.35c0-1.43-.46-3.11-3.42-3.11-2.64,0-3.11,1.29-3.4,2.58h-3.12c.23-2.45,1.74-5.07,6.62-5.06,4.18.01,6.49,1.7,6.49,5.56v7.84ZM291.75,561.39h-2.56c-3.24,0-4.89.91-4.89,3.14,0,1.64,1.11,2.87,3.11,2.87,3.83,0,4.34-2.6,4.34-5.49v-.52Z" style="fill: #62554f; stroke-width: 0px;"/>
      <path d="M299.74,545.27h3.24v3.73h-3.24v-3.73ZM299.74,552.67h3.24v16.8h-3.24v-16.8Z" style="fill: #62554f; stroke-width: 0px;"/>
      <path d="M305.87,552.67h2.84v-4.88h3.24v4.88h3.63v2.59h-3.63v9.54c0,1.56.4,2.33,1.89,2.33.38,0,.95-.02,1.39-.12v2.38c-.76.28-1.8.31-2.63.31-2.74,0-3.89-1.43-3.89-4.25v-10.2h-2.84v-2.59Z" style="fill: #62554f; stroke-width: 0px;"/>
    </g>
    <g>
      <path d="M249.22,587.02h6.02c3.32,0,4.8,1.74,4.8,3.83,0,1.77-1,2.91-2.15,3.33,1.06.35,2.64,1.43,2.64,3.63,0,2.83-2.17,4.5-5.13,4.5h-6.18v-15.28ZM254.85,593.31c2.09,0,2.91-.84,2.91-2.25,0-1.31-.95-2.2-2.64-2.2h-3.68v4.45h3.41ZM251.44,600.46h3.62c1.89,0,3.13-.87,3.13-2.68,0-1.58-1.01-2.63-3.45-2.63h-3.31v5.31Z" style="fill: #938b88; stroke-width: 0px;"/>
      <path d="M273.01,596.68c0,3.26-1.88,5.89-5.33,5.89-3.26,0-5.22-2.48-5.22-5.84s1.94-5.88,5.35-5.88c3.15,0,5.2,2.33,5.2,5.84ZM264.68,596.7c0,2.4,1.17,4.09,3.08,4.09s3.04-1.62,3.04-4.08-1.09-4.1-3.08-4.1-3.04,1.57-3.04,4.09Z" style="fill: #938b88; stroke-width: 0px;"/>
      <path d="M275.44,602.3v-16.14h2.16v16.14h-2.16Z" style="fill: #938b88; stroke-width: 0px;"/>
      <path d="M280.81,586.17h2.16v2.48h-2.16v-2.48ZM280.81,591.1h2.16v11.2h-2.16v-11.2Z" style="fill: #938b88; stroke-width: 0px;"/>
      <path d="M287.22,591.1c1.42,4.43,2.48,7.83,2.8,9.22h.02c.28-1.36,1.45-4.72,3-9.22h2.19l-4.09,11.2h-2.35l-3.89-11.2h2.32Z" style="fill: #938b88; stroke-width: 0px;"/>
      <path d="M297.11,586.17h2.16v2.48h-2.16v-2.48ZM297.11,591.1h2.16v11.2h-2.16v-11.2Z" style="fill: #938b88; stroke-width: 0px;"/>
      <path d="M310.87,599.77c0,1.03.09,2.22.15,2.53h-2.07c-.09-.24-.15-.79-.18-1.39-.39.72-1.26,1.66-3.4,1.66-2.65,0-3.78-1.73-3.78-3.44,0-2.51,1.98-3.66,5.3-3.66h1.85v-.9c0-.95-.31-2.07-2.28-2.07-1.76,0-2.07.86-2.26,1.72h-2.08c.15-1.63,1.16-3.38,4.42-3.37,2.79,0,4.33,1.14,4.33,3.71v5.23ZM308.77,596.91h-1.71c-2.16,0-3.26.61-3.26,2.09,0,1.1.74,1.91,2.07,1.91,2.56,0,2.9-1.73,2.9-3.66v-.35Z" style="fill: #938b88; stroke-width: 0px;"/>
    </g>
    <g>
      <path d="M355.96,627.36h3.74c2.06,0,3.02,1.08,3.02,2.43,0,1.13-.65,1.87-1.4,2.12.68.22,1.72.9,1.72,2.33,0,1.84-1.4,2.85-3.25,2.85h-3.83v-9.75ZM359.46,631.41c1.41,0,1.96-.56,1.96-1.51,0-.86-.62-1.48-1.76-1.48h-2.42v2.99h2.22ZM357.23,636.04h2.41c1.22,0,2.07-.58,2.07-1.79,0-1.06-.68-1.77-2.32-1.77h-2.16v3.56Z" style="fill: #62554f; stroke-width: 0px;"/>
      <path d="M370.06,635.56c0,.65.06,1.34.1,1.55h-1.17c-.06-.16-.1-.5-.12-.93-.25.47-.81,1.1-2.19,1.1-1.67,0-2.39-1.09-2.39-2.17,0-1.58,1.25-2.31,3.36-2.31h1.21v-.6c0-.63-.2-1.39-1.53-1.39-1.19,0-1.39.59-1.52,1.14h-1.19c.09-.98.7-2.11,2.74-2.11,1.74,0,2.7.71,2.7,2.33v3.39ZM368.87,633.64h-1.15c-1.42,0-2.17.39-2.17,1.39,0,.74.51,1.28,1.38,1.28,1.71,0,1.94-1.15,1.94-2.44v-.23Z" style="fill: #62554f; stroke-width: 0px;"/>
      <path d="M377.77,634.93c-.3,1.22-1.13,2.34-2.94,2.34-1.95,0-3.17-1.41-3.17-3.68,0-2.01,1.14-3.76,3.25-3.76s2.76,1.46,2.85,2.38h-1.21c-.18-.72-.63-1.35-1.66-1.35-1.26,0-1.97,1.08-1.97,2.69s.69,2.7,1.92,2.7c.89,0,1.41-.47,1.7-1.32h1.22Z" style="fill: #62554f; stroke-width: 0px;"/>
      <path d="M380.46,633.39c.6-.7,2.16-2.34,3.12-3.39h1.46l-2.67,2.77,2.98,4.33h-1.43l-2.39-3.55-1.07,1.03v2.52h-1.23v-10.28h1.23v6.57Z" style="fill: #62554f; stroke-width: 0px;"/>
      <path d="M391.77,634.93c-.3,1.22-1.13,2.34-2.94,2.34-1.95,0-3.17-1.41-3.17-3.68,0-2.01,1.14-3.76,3.25-3.76s2.76,1.46,2.85,2.38h-1.21c-.18-.72-.63-1.35-1.66-1.35-1.26,0-1.97,1.08-1.97,2.69s.69,2.7,1.92,2.7c.89,0,1.41-.47,1.7-1.32h1.22Z" style="fill: #62554f; stroke-width: 0px;"/>
      <path d="M399.42,633.54c0,2.05-1.17,3.73-3.34,3.73-2.04,0-3.27-1.57-3.27-3.71s1.21-3.73,3.35-3.73c1.97,0,3.26,1.48,3.26,3.71ZM394.08,633.55c0,1.56.78,2.69,2.05,2.69s2.03-1.08,2.03-2.69-.73-2.7-2.06-2.7-2.03,1.07-2.03,2.69Z" style="fill: #62554f; stroke-width: 0px;"/>
      <path d="M406.72,635.04c0,.69,0,1.65.01,2.07h-1.19c-.03-.19-.04-.62-.05-1.06-.35.79-1.03,1.23-2.15,1.23-1.2,0-2.35-.6-2.35-2.6v-4.67h1.22v4.41c0,.93.29,1.79,1.47,1.79,1.31,0,1.81-.72,1.81-2.5v-3.7h1.23v5.03Z" style="fill: #62554f; stroke-width: 0px;"/>
      <path d="M408.82,631.79c0-.62,0-1.24-.01-1.79h1.19c.03.21.05.96.05,1.17.28-.61.86-1.34,2.24-1.34s2.37.81,2.37,2.7v4.57h-1.23v-4.41c0-1.07-.42-1.8-1.5-1.8-1.34,0-1.88,1.02-1.88,2.45v3.76h-1.23v-5.31Z" style="fill: #62554f; stroke-width: 0px;"/>
      <path d="M415.74,630h1.23v-2.1h1.23v2.1h1.57v1h-1.57v4.16c0,.69.17,1.04.81,1.04.17,0,.42,0,.62-.06v.92c-.3.11-.72.13-1.06.13-1.1,0-1.59-.57-1.59-1.75v-4.45h-1.23v-1Z" style="fill: #62554f; stroke-width: 0px;"/>
      <path d="M421.01,631.93c0-.99,0-1.55-.01-1.93h1.2c.02.2.04.76.04,1.45.37-.96,1.22-1.58,2.39-1.62v1.22c-1.46.04-2.39.8-2.39,2.6v3.45h-1.23v-5.17Z" style="fill: #62554f; stroke-width: 0px;"/>
      <path d="M426.78,630c1.15,3.4,1.78,5.29,1.97,6.01h.01c.23-.8.74-2.43,1.9-6.01h1.24l-2.55,7.43c-.72,2.08-1.26,2.6-2.71,2.6-.22,0-.49-.01-.76-.05v-1.07c.18.02.39.04.59.04.9,0,1.24-.4,1.66-1.58l-2.66-7.38h1.33Z" style="fill: #62554f; stroke-width: 0px;"/>
    </g>
    <rect x="117.63" y="625.25" width="15.41" height="15.41" style="fill: #e8c055; stroke-width: 0px;"/>
    <rect x="210.63" y="625.25" width="15.41" height="15.41" style="fill: #88b052; opacity: .46; stroke-width: 0px;"/>
    <rect x="280.63" y="625.25" width="15.41" height="15.41" style="fill: #3c877b; stroke-width: 0px;"/>
    <rect x="337.63" y="625.25" width="15.41" height="15.41" style="fill: #c78249; stroke-width: 0px;"/>
  </g>

     	<!-- <g transform="translate(50 -100)">
						<rect width="10" height="10" x="5" y="420" rx="0" ry="0" fill="#efc13a" />
						<text text-anchor="start" font-size="9px" x="32" y="428">Lodging</text>
			
						<rect width="10" height="10" x="62" y="420" rx="0" ry="0" fill="#7cb342" />
						<text text-anchor="start" font-size="9px" x="82" y="428">Tent</text>
			
						<rect width="10" height="10" x="105" y="420" rx="0" ry="0" fill="#00897b" />
						<text text-anchor="start" font-size="9px" x="122" y="428">RV</text>
			
						<rect width="10" height="10" x="140" y="420" rx="0" ry="0" fill="#d27f3c" />
						<text text-anchor="start" font-size="9px" x="177" y="428">Backcountry</text>
					</g> -->
</svg>