<?xml version="1.0" encoding="UTF-8"?>
<svg xmlns="http://www.w3.org/2000/svg" viewBox="0 0 910.78 342.61">
  <g id="uuid-b9f66715-d585-47d4-a4c5-1d67ad942801" data-name="Layer 3">
    <rect x="10.68" y="56.86" width="92.17" height="236.03" style="fill: #fdf4a1; stroke-width: 0px;"/>
    <polygon points="904.44 57.13 115.62 57.13 115.62 289.95 115.62 289.95 115.62 337.43 351.32 337.43 351.32 289.95 904.44 289.95 904.44 57.13" style="fill: #ccdfec; stroke-width: 0px;"/>
    <g>
      <rect x="194.54" y="13.44" width="108.78" height="25.28" style="fill: #fdf4a1; stroke-width: 0px;"/>
      <g>
        <path d="M213.38,29.84h-1.32v-4.6h-5.02v4.6h-1.31v-9.95h1.31v4.28h5.02v-4.28h1.32v9.95Z" style="fill: #000; stroke-width: 0px;"/>
        <path d="M220.08,29.84c-.07-.15-.13-.41-.18-.78-.59.61-1.29.92-2.11.92-.73,0-1.33-.21-1.79-.62s-.7-.94-.7-1.57c0-.77.29-1.37.88-1.79s1.41-.64,2.47-.64h1.23v-.58c0-.44-.13-.79-.4-1.06s-.65-.39-1.17-.39c-.45,0-.83.11-1.13.34s-.46.5-.46.83h-1.27c0-.37.13-.73.39-1.07s.62-.62,1.07-.82.94-.3,1.48-.3c.85,0,1.52.21,2,.64s.73,1.01.75,1.76v3.4c0,.68.09,1.22.26,1.62v.11h-1.33ZM217.98,28.88c.4,0,.77-.1,1.13-.31s.61-.47.77-.8v-1.52h-.99c-1.55,0-2.32.45-2.32,1.36,0,.4.13.71.4.93s.6.33,1.02.33Z" style="fill: #000; stroke-width: 0px;"/>
        <path d="M225.46,28.13l1.83-5.68h1.29l-2.65,7.4h-.96l-2.68-7.4h1.29l1.88,5.68Z" style="fill: #000; stroke-width: 0px;"/>
        <path d="M232.78,29.98c-1,0-1.82-.33-2.45-.99s-.94-1.54-.94-2.64v-.23c0-.73.14-1.39.42-1.97s.67-1.03,1.18-1.35,1.05-.49,1.64-.49c.96,0,1.71.32,2.24.95s.8,1.54.8,2.72v.53h-5.01c.02.73.23,1.32.64,1.77s.93.67,1.56.67c.45,0,.82-.09,1.13-.27s.58-.42.81-.72l.77.6c-.62.95-1.55,1.43-2.79,1.43ZM232.63,23.35c-.51,0-.94.19-1.29.56s-.56.89-.64,1.56h3.71v-.1c-.04-.64-.21-1.14-.52-1.49s-.73-.53-1.26-.53Z" style="fill: #000; stroke-width: 0px;"/>
        <path d="M240.8,29.84v-9.95h2.81c.87,0,1.63.19,2.3.57s1.18.93,1.54,1.63.55,1.52.55,2.43v.64c0,.94-.18,1.76-.54,2.47s-.88,1.25-1.55,1.63-1.46.57-2.35.58h-2.75ZM242.11,20.96v7.81h1.38c1.01,0,1.8-.31,2.36-.94.56-.63.84-1.53.84-2.69v-.58c0-1.13-.27-2.01-.8-2.64-.53-.63-1.28-.95-2.26-.95h-1.53Z" style="fill: #000; stroke-width: 0px;"/>
        <path d="M249.79,20.48c0-.21.06-.38.19-.52s.31-.21.56-.21.43.07.56.21.19.31.19.52-.06.38-.19.51-.31.21-.56.21-.43-.07-.56-.21-.19-.31-.19-.51ZM251.15,29.84h-1.26v-7.4h1.26v7.4Z" style="fill: #000; stroke-width: 0px;"/>
        <path d="M257.48,27.88c0-.34-.13-.61-.39-.8s-.71-.35-1.35-.49-1.15-.3-1.52-.49-.65-.42-.83-.68-.27-.58-.27-.94c0-.61.26-1.12.77-1.54s1.17-.63,1.97-.63c.84,0,1.52.22,2.04.65s.78.99.78,1.66h-1.27c0-.35-.15-.65-.44-.9s-.66-.38-1.11-.38-.82.1-1.08.3-.39.46-.39.79c0,.31.12.54.36.69s.68.3,1.31.44,1.14.31,1.53.51.68.43.87.71.28.61.28,1.01c0,.66-.26,1.19-.79,1.59s-1.21.6-2.06.6c-.59,0-1.12-.1-1.57-.31s-.81-.5-1.07-.88-.39-.78-.39-1.22h1.26c.02.42.19.76.51,1.01s.73.37,1.25.37c.48,0,.86-.1,1.15-.29s.43-.45.43-.78Z" style="fill: #000; stroke-width: 0px;"/>
        <path d="M263.46,29.98c-1,0-1.82-.33-2.45-.99s-.94-1.54-.94-2.64v-.23c0-.73.14-1.39.42-1.97s.67-1.03,1.18-1.35,1.05-.49,1.64-.49c.96,0,1.71.32,2.24.95s.8,1.54.8,2.72v.53h-5.01c.02.73.23,1.32.64,1.77s.93.67,1.56.67c.45,0,.82-.09,1.13-.27s.58-.42.81-.72l.77.6c-.62.95-1.55,1.43-2.79,1.43ZM263.31,23.35c-.51,0-.94.19-1.29.56s-.56.89-.64,1.56h3.71v-.1c-.04-.64-.21-1.14-.52-1.49s-.73-.53-1.26-.53Z" style="fill: #000; stroke-width: 0px;"/>
        <path d="M272.38,29.84c-.07-.15-.13-.41-.18-.78-.59.61-1.29.92-2.11.92-.73,0-1.33-.21-1.79-.62s-.7-.94-.7-1.57c0-.77.29-1.37.88-1.79s1.41-.64,2.47-.64h1.23v-.58c0-.44-.13-.79-.4-1.06s-.65-.39-1.17-.39c-.45,0-.83.11-1.13.34s-.46.5-.46.83h-1.27c0-.37.13-.73.39-1.07s.62-.62,1.07-.82.94-.3,1.48-.3c.85,0,1.52.21,2,.64s.73,1.01.75,1.76v3.4c0,.68.09,1.22.26,1.62v.11h-1.33ZM270.28,28.88c.4,0,.77-.1,1.13-.31s.61-.47.77-.8v-1.52h-.99c-1.55,0-2.32.45-2.32,1.36,0,.4.13.71.4.93s.6.33,1.02.33Z" style="fill: #000; stroke-width: 0px;"/>
        <path d="M279.73,27.88c0-.34-.13-.61-.39-.8s-.71-.35-1.35-.49-1.15-.3-1.52-.49-.65-.42-.83-.68-.27-.58-.27-.94c0-.61.26-1.12.77-1.54s1.17-.63,1.97-.63c.84,0,1.52.22,2.04.65s.78.99.78,1.66h-1.27c0-.35-.15-.65-.44-.9s-.66-.38-1.11-.38-.82.1-1.08.3-.39.46-.39.79c0,.31.12.54.36.69s.68.3,1.31.44,1.14.31,1.53.51.68.43.87.71.28.61.28,1.01c0,.66-.26,1.19-.79,1.59s-1.21.6-2.06.6c-.59,0-1.12-.1-1.57-.31s-.81-.5-1.07-.88-.39-.78-.39-1.22h1.26c.02.42.19.76.51,1.01s.73.37,1.25.37c.48,0,.86-.1,1.15-.29s.43-.45.43-.78Z" style="fill: #000; stroke-width: 0px;"/>
        <path d="M285.72,29.98c-1,0-1.82-.33-2.45-.99s-.94-1.54-.94-2.64v-.23c0-.73.14-1.39.42-1.97s.67-1.03,1.18-1.35,1.05-.49,1.64-.49c.96,0,1.71.32,2.24.95s.8,1.54.8,2.72v.53h-5.01c.02.73.23,1.32.64,1.77s.93.67,1.56.67c.45,0,.82-.09,1.13-.27s.58-.42.81-.72l.77.6c-.62.95-1.55,1.43-2.79,1.43ZM285.56,23.35c-.51,0-.94.19-1.29.56s-.56.89-.64,1.56h3.71v-.1c-.04-.64-.21-1.14-.52-1.49s-.73-.53-1.26-.53Z" style="fill: #000; stroke-width: 0px;"/>
      </g>
    </g>
    <g>
      <rect x="318.62" y="13.44" width="152.48" height="25.28" style="fill: #ccdfec; stroke-width: 0px;"/>
      <g>
        <path d="M328.15,29.84v-9.95h2.81c.87,0,1.63.19,2.3.57s1.18.93,1.54,1.63.55,1.52.55,2.43v.64c0,.94-.18,1.76-.54,2.47s-.88,1.25-1.55,1.63-1.46.57-2.35.58h-2.75ZM329.46,20.96v7.81h1.38c1.01,0,1.8-.31,2.36-.94.56-.63.84-1.53.84-2.69v-.58c0-1.13-.27-2.01-.8-2.64-.53-.63-1.28-.95-2.26-.95h-1.53Z" style="fill: #000; stroke-width: 0px;"/>
        <path d="M336.8,26.07c0-.72.14-1.38.43-1.96s.68-1.03,1.19-1.34,1.09-.47,1.74-.47c1.01,0,1.82.35,2.44,1.05s.93,1.62.93,2.78v.09c0,.72-.14,1.37-.41,1.94s-.67,1.02-1.18,1.34-1.1.48-1.77.48c-1,0-1.81-.35-2.44-1.05s-.93-1.62-.93-2.77v-.09ZM338.07,26.22c0,.82.19,1.48.57,1.98s.89.75,1.53.75,1.15-.25,1.53-.76.57-1.21.57-2.12c0-.81-.19-1.47-.58-1.97s-.9-.76-1.53-.76-1.13.25-1.51.75-.57,1.21-.57,2.13Z" style="fill: #000; stroke-width: 0px;"/>
        <path d="M356.43,29.84h-1.32l-5.01-7.67v7.67h-1.32v-9.95h1.32l5.02,7.7v-7.7h1.31v9.95Z" style="fill: #000; stroke-width: 0px;"/>
        <path d="M358.23,26.07c0-.72.14-1.38.43-1.96s.68-1.03,1.19-1.34,1.09-.47,1.74-.47c1.01,0,1.82.35,2.44,1.05s.93,1.62.93,2.78v.09c0,.72-.14,1.37-.41,1.94s-.67,1.02-1.18,1.34-1.1.48-1.77.48c-1,0-1.81-.35-2.44-1.05s-.93-1.62-.93-2.77v-.09ZM359.5,26.22c0,.82.19,1.48.57,1.98s.89.75,1.53.75,1.15-.25,1.53-.76.57-1.21.57-2.12c0-.81-.19-1.47-.58-1.97s-.9-.76-1.53-.76-1.13.25-1.51.75-.57,1.21-.57,2.13Z" style="fill: #000; stroke-width: 0px;"/>
        <path d="M368.26,20.65v1.79h1.38v.98h-1.38v4.59c0,.3.06.52.18.67.12.15.33.22.63.22.15,0,.35-.03.6-.08v1.02c-.33.09-.66.14-.97.14-.56,0-.99-.17-1.28-.51s-.43-.83-.43-1.46v-4.59h-1.35v-.98h1.35v-1.79h1.26Z" style="fill: #000; stroke-width: 0px;"/>
        <path d="M382.44,29.84h-1.32v-4.6h-5.02v4.6h-1.31v-9.95h1.31v4.28h5.02v-4.28h1.32v9.95Z" style="fill: #000; stroke-width: 0px;"/>
        <path d="M389.13,29.84c-.07-.15-.13-.41-.18-.78-.59.61-1.29.92-2.11.92-.73,0-1.33-.21-1.79-.62s-.7-.94-.7-1.57c0-.77.29-1.37.88-1.79s1.41-.64,2.47-.64h1.23v-.58c0-.44-.13-.79-.4-1.06s-.65-.39-1.17-.39c-.45,0-.83.11-1.13.34s-.46.5-.46.83h-1.27c0-.37.13-.73.39-1.07s.62-.62,1.07-.82.94-.3,1.48-.3c.85,0,1.52.21,2,.64s.73,1.01.75,1.76v3.4c0,.68.09,1.22.26,1.62v.11h-1.33ZM387.04,28.88c.4,0,.77-.1,1.13-.31s.61-.47.77-.8v-1.52h-.99c-1.55,0-2.32.45-2.32,1.36,0,.4.13.71.4.93s.6.33,1.02.33Z" style="fill: #000; stroke-width: 0px;"/>
        <path d="M394.52,28.13l1.83-5.68h1.29l-2.65,7.4h-.96l-2.68-7.4h1.29l1.88,5.68Z" style="fill: #000; stroke-width: 0px;"/>
        <path d="M401.84,29.98c-1,0-1.82-.33-2.45-.99s-.94-1.54-.94-2.64v-.23c0-.73.14-1.39.42-1.97s.67-1.03,1.18-1.35,1.05-.49,1.64-.49c.96,0,1.71.32,2.24.95s.8,1.54.8,2.72v.53h-5.01c.02.73.23,1.32.64,1.77s.93.67,1.56.67c.45,0,.82-.09,1.13-.27s.58-.42.81-.72l.77.6c-.62.95-1.55,1.43-2.79,1.43ZM401.69,23.35c-.51,0-.94.19-1.29.56s-.56.89-.64,1.56h3.71v-.1c-.04-.64-.21-1.14-.52-1.49s-.73-.53-1.26-.53Z" style="fill: #000; stroke-width: 0px;"/>
        <path d="M409.85,29.84v-9.95h2.81c.87,0,1.63.19,2.3.57s1.18.93,1.54,1.63.55,1.52.55,2.43v.64c0,.94-.18,1.76-.54,2.47s-.88,1.25-1.55,1.63-1.46.57-2.35.58h-2.75ZM411.17,20.96v7.81h1.38c1.01,0,1.8-.31,2.36-.94.56-.63.84-1.53.84-2.69v-.58c0-1.13-.27-2.01-.8-2.64-.53-.63-1.28-.95-2.26-.95h-1.53Z" style="fill: #000; stroke-width: 0px;"/>
        <path d="M418.84,20.48c0-.21.06-.38.19-.52s.31-.21.56-.21.43.07.56.21.19.31.19.52-.06.38-.19.51-.31.21-.56.21-.43-.07-.56-.21-.19-.31-.19-.51ZM420.21,29.84h-1.26v-7.4h1.26v7.4Z" style="fill: #000; stroke-width: 0px;"/>
        <path d="M426.54,27.88c0-.34-.13-.61-.39-.8-.26-.19-.71-.35-1.35-.49-.64-.14-1.15-.3-1.52-.49s-.65-.42-.83-.68c-.18-.26-.27-.58-.27-.94,0-.61.26-1.12.77-1.54s1.17-.63,1.97-.63c.84,0,1.52.22,2.04.65.52.43.78.99.78,1.66h-1.27c0-.35-.15-.65-.44-.9s-.66-.38-1.11-.38-.82.1-1.08.3-.39.46-.39.79c0,.31.12.54.36.69.24.15.68.3,1.31.44.63.14,1.14.31,1.54.51.39.2.68.43.87.71.19.28.28.61.28,1.01,0,.66-.26,1.19-.79,1.59-.53.4-1.21.6-2.06.6-.59,0-1.12-.1-1.57-.31-.46-.21-.81-.5-1.07-.88-.26-.38-.39-.78-.39-1.22h1.26c.02.42.19.76.51,1.01.32.25.74.37,1.25.37.48,0,.86-.1,1.15-.29.29-.19.43-.45.43-.78Z" style="fill: #000; stroke-width: 0px;"/>
        <path d="M432.52,29.98c-1,0-1.82-.33-2.45-.99s-.94-1.54-.94-2.64v-.23c0-.73.14-1.39.42-1.97s.67-1.03,1.18-1.35c.5-.33,1.05-.49,1.64-.49.96,0,1.71.32,2.24.95s.8,1.54.8,2.72v.53h-5.01c.02.73.23,1.32.64,1.77.41.45.93.67,1.56.67.45,0,.82-.09,1.13-.27.31-.18.58-.42.81-.72l.77.6c-.62.95-1.55,1.43-2.79,1.43ZM432.37,23.35c-.51,0-.94.19-1.29.56-.35.37-.56.89-.64,1.56h3.71v-.1c-.04-.64-.21-1.14-.52-1.49-.31-.35-.73-.53-1.26-.53Z" style="fill: #000; stroke-width: 0px;"/>
        <path d="M441.44,29.84c-.07-.15-.13-.41-.18-.78-.59.61-1.29.92-2.11.92-.73,0-1.33-.21-1.79-.62-.47-.41-.7-.94-.7-1.57,0-.77.29-1.37.88-1.79.59-.43,1.41-.64,2.47-.64h1.23v-.58c0-.44-.13-.79-.4-1.06-.26-.26-.65-.39-1.17-.39-.45,0-.83.11-1.13.34-.31.23-.46.5-.46.83h-1.27c0-.37.13-.73.39-1.07.26-.34.62-.62,1.07-.82.45-.2.94-.3,1.48-.3.85,0,1.52.21,2,.64.48.43.73,1.01.75,1.76v3.4c0,.68.09,1.22.26,1.62v.11h-1.33ZM439.34,28.88c.4,0,.77-.1,1.13-.31s.61-.47.77-.8v-1.52h-.99c-1.55,0-2.32.45-2.32,1.36,0,.4.13.71.4.93.26.22.6.33,1.02.33Z" style="fill: #000; stroke-width: 0px;"/>
        <path d="M448.79,27.88c0-.34-.13-.61-.39-.8-.26-.19-.71-.35-1.35-.49-.64-.14-1.15-.3-1.52-.49s-.65-.42-.83-.68c-.18-.26-.27-.58-.27-.94,0-.61.26-1.12.77-1.54s1.17-.63,1.97-.63c.84,0,1.52.22,2.04.65.52.43.78.99.78,1.66h-1.27c0-.35-.15-.65-.44-.9s-.66-.38-1.11-.38-.82.1-1.08.3-.39.46-.39.79c0,.31.12.54.36.69.24.15.68.3,1.31.44.63.14,1.14.31,1.54.51.39.2.68.43.87.71.19.28.28.61.28,1.01,0,.66-.26,1.19-.79,1.59-.53.4-1.21.6-2.06.6-.59,0-1.12-.1-1.57-.31-.46-.21-.81-.5-1.07-.88-.26-.38-.39-.78-.39-1.22h1.26c.02.42.19.76.51,1.01.32.25.74.37,1.25.37.48,0,.86-.1,1.15-.29.29-.19.43-.45.43-.78Z" style="fill: #000; stroke-width: 0px;"/>
        <path d="M454.77,29.98c-1,0-1.82-.33-2.45-.99s-.94-1.54-.94-2.64v-.23c0-.73.14-1.39.42-1.97s.67-1.03,1.18-1.35c.5-.33,1.05-.49,1.64-.49.96,0,1.71.32,2.24.95s.8,1.54.8,2.72v.53h-5.01c.02.73.23,1.32.64,1.77.41.45.93.67,1.56.67.45,0,.82-.09,1.13-.27.31-.18.58-.42.81-.72l.77.6c-.62.95-1.55,1.43-2.79,1.43ZM454.62,23.35c-.51,0-.94.19-1.29.56-.35.37-.56.89-.64,1.56h3.71v-.1c-.04-.64-.21-1.14-.52-1.49-.31-.35-.73-.53-1.26-.53Z" style="fill: #000; stroke-width: 0px;"/>
      </g>
    </g>
    <g>
      <rect x="484.84" y="13.44" width="117.58" height="25.28" style="fill: #e48b3d; opacity: .69; stroke-width: 0px;"/>
      <g>
        <path d="M502.12,20.96h-3.2v8.88h-1.31v-8.88h-3.19v-1.07h7.7v1.07Z" style="fill: #000; stroke-width: 0px;"/>
        <path d="M505.79,29.98c-1,0-1.82-.33-2.45-.99s-.94-1.54-.94-2.64v-.23c0-.73.14-1.39.42-1.97s.67-1.03,1.18-1.35c.5-.33,1.05-.49,1.64-.49.96,0,1.71.32,2.24.95s.8,1.54.8,2.72v.53h-5.01c.02.73.23,1.32.64,1.77.41.45.93.67,1.56.67.45,0,.82-.09,1.13-.27.31-.18.58-.42.81-.72l.77.6c-.62.95-1.55,1.43-2.79,1.43ZM505.63,23.35c-.51,0-.94.19-1.29.56-.35.37-.56.89-.64,1.56h3.71v-.1c-.04-.64-.21-1.14-.52-1.49-.31-.35-.73-.53-1.26-.53Z" style="fill: #000; stroke-width: 0px;"/>
        <path d="M514.44,27.88c0-.34-.13-.61-.39-.8-.26-.19-.71-.35-1.35-.49-.64-.14-1.15-.3-1.52-.49s-.65-.42-.83-.68c-.18-.26-.27-.58-.27-.94,0-.61.26-1.12.77-1.54s1.17-.63,1.97-.63c.84,0,1.52.22,2.04.65.52.43.78.99.78,1.66h-1.27c0-.35-.15-.65-.44-.9s-.66-.38-1.11-.38-.82.1-1.08.3-.39.46-.39.79c0,.31.12.54.36.69.24.15.68.3,1.31.44.63.14,1.14.31,1.54.51.39.2.68.43.87.71.19.28.28.61.28,1.01,0,.66-.26,1.19-.79,1.59-.53.4-1.21.6-2.06.6-.59,0-1.12-.1-1.57-.31-.46-.21-.81-.5-1.07-.88-.26-.38-.39-.78-.39-1.22h1.26c.02.42.19.76.51,1.01.32.25.74.37,1.25.37.48,0,.86-.1,1.15-.29.29-.19.43-.45.43-.78Z" style="fill: #000; stroke-width: 0px;"/>
        <path d="M519.07,20.65v1.79h1.38v.98h-1.38v4.59c0,.3.06.52.18.67.12.15.33.22.63.22.15,0,.35-.03.6-.08v1.02c-.33.09-.66.14-.97.14-.57,0-.99-.17-1.28-.51s-.43-.83-.43-1.46v-4.59h-1.35v-.98h1.35v-1.79h1.26Z" style="fill: #000; stroke-width: 0px;"/>
        <path d="M525,29.98c-1,0-1.82-.33-2.45-.99s-.94-1.54-.94-2.64v-.23c0-.73.14-1.39.42-1.97s.67-1.03,1.18-1.35c.5-.33,1.05-.49,1.64-.49.96,0,1.71.32,2.24.95s.8,1.54.8,2.72v.53h-5.01c.02.73.23,1.32.64,1.77.41.45.93.67,1.56.67.45,0,.82-.09,1.13-.27.31-.18.58-.42.81-.72l.77.6c-.62.95-1.55,1.43-2.79,1.43ZM524.84,23.35c-.51,0-.94.19-1.29.56-.35.37-.56.89-.64,1.56h3.71v-.1c-.04-.64-.21-1.14-.52-1.49-.31-.35-.73-.53-1.26-.53Z" style="fill: #000; stroke-width: 0px;"/>
        <path d="M529.04,26.08c0-1.13.27-2.05.81-2.74.54-.69,1.24-1.04,2.11-1.04s1.55.3,2.06.89v-3.86h1.26v10.5h-1.16l-.06-.79c-.51.62-1.21.93-2.11.93s-1.56-.35-2.1-1.05-.81-1.62-.81-2.75v-.1ZM530.3,26.23c0,.84.17,1.49.52,1.97.35.47.82.71,1.44.71.8,0,1.39-.36,1.76-1.08v-3.4c-.38-.7-.96-1.05-1.74-1.05-.62,0-1.1.24-1.45.72-.35.48-.52,1.19-.52,2.13Z" style="fill: #000; stroke-width: 0px;"/>
        <path d="M542.22,25.94v3.9h-1.31v-9.95h3.67c1.09,0,1.94.28,2.56.83.62.56.93,1.29.93,2.21,0,.97-.3,1.71-.91,2.23-.6.52-1.47.78-2.59.78h-2.34ZM542.22,24.87h2.36c.7,0,1.24-.17,1.61-.5.37-.33.56-.81.56-1.43,0-.59-.19-1.07-.56-1.42-.37-.36-.89-.54-1.54-.55h-2.43v3.91Z" style="fill: #000; stroke-width: 0px;"/>
        <path d="M549.11,26.07c0-.72.14-1.38.43-1.96.29-.58.68-1.03,1.19-1.34.51-.31,1.09-.47,1.74-.47,1.01,0,1.82.35,2.44,1.05s.93,1.62.93,2.78v.09c0,.72-.14,1.37-.41,1.94-.28.57-.67,1.02-1.18,1.34s-1.1.48-1.77.48c-1,0-1.82-.35-2.44-1.05s-.93-1.62-.93-2.77v-.09ZM550.38,26.23c0,.82.19,1.48.57,1.98.38.5.89.75,1.53.75s1.15-.25,1.53-.76c.38-.5.57-1.21.57-2.12,0-.81-.19-1.47-.58-1.97-.38-.5-.9-.76-1.53-.76s-1.13.25-1.51.75-.57,1.21-.57,2.13Z" style="fill: #000; stroke-width: 0px;"/>
        <path d="M561.74,27.88c0-.34-.13-.61-.39-.8-.26-.19-.71-.35-1.35-.49-.64-.14-1.15-.3-1.52-.49s-.65-.42-.83-.68c-.18-.26-.27-.58-.27-.94,0-.61.26-1.12.77-1.54s1.17-.63,1.97-.63c.84,0,1.52.22,2.04.65.52.43.78.99.78,1.66h-1.27c0-.35-.15-.65-.44-.9s-.66-.38-1.11-.38-.82.1-1.08.3-.39.46-.39.79c0,.31.12.54.36.69.24.15.68.3,1.31.44.63.14,1.14.31,1.54.51.39.2.68.43.87.71.19.28.28.61.28,1.01,0,.66-.26,1.19-.79,1.59-.53.4-1.21.6-2.06.6-.59,0-1.12-.1-1.57-.31-.46-.21-.81-.5-1.07-.88-.26-.38-.39-.78-.39-1.22h1.26c.02.42.19.76.51,1.01.32.25.74.37,1.25.37.48,0,.86-.1,1.15-.29.29-.19.43-.45.43-.78Z" style="fill: #000; stroke-width: 0px;"/>
        <path d="M564.66,20.48c0-.21.06-.38.19-.52.13-.14.31-.21.56-.21s.43.07.56.21c.13.14.19.31.19.52s-.06.38-.19.51c-.13.14-.31.21-.56.21s-.43-.07-.56-.21c-.12-.14-.19-.31-.19-.51ZM566.03,29.84h-1.26v-7.4h1.26v7.4Z" style="fill: #000; stroke-width: 0px;"/>
        <path d="M569.76,20.65v1.79h1.38v.98h-1.38v4.59c0,.3.06.52.18.67.12.15.33.22.63.22.15,0,.35-.03.6-.08v1.02c-.33.09-.66.14-.97.14-.57,0-.99-.17-1.28-.51s-.43-.83-.43-1.46v-4.59h-1.35v-.98h1.35v-1.79h1.26Z" style="fill: #000; stroke-width: 0px;"/>
        <path d="M572.63,20.48c0-.21.06-.38.19-.52.13-.14.31-.21.56-.21s.43.07.56.21c.13.14.19.31.19.52s-.06.38-.19.51c-.13.14-.31.21-.56.21s-.43-.07-.56-.21c-.12-.14-.19-.31-.19-.51ZM574,29.84h-1.26v-7.4h1.26v7.4Z" style="fill: #000; stroke-width: 0px;"/>
        <path d="M578.46,28.13l1.83-5.68h1.29l-2.65,7.4h-.96l-2.68-7.4h1.29l1.88,5.68Z" style="fill: #000; stroke-width: 0px;"/>
        <path d="M585.78,29.98c-1,0-1.82-.33-2.45-.99s-.94-1.54-.94-2.64v-.23c0-.73.14-1.39.42-1.97s.67-1.03,1.18-1.35c.5-.33,1.05-.49,1.64-.49.96,0,1.71.32,2.24.95s.8,1.54.8,2.72v.53h-5.01c.02.73.23,1.32.64,1.77.41.45.93.67,1.56.67.45,0,.82-.09,1.13-.27.31-.18.58-.42.81-.72l.77.6c-.62.95-1.55,1.43-2.79,1.43ZM585.62,23.35c-.51,0-.94.19-1.29.56-.35.37-.56.89-.64,1.56h3.71v-.1c-.04-.64-.21-1.14-.52-1.49-.31-.35-.73-.53-1.26-.53Z" style="fill: #000; stroke-width: 0px;"/>
      </g>
    </g>
    <g>
      <rect x="618.07" y="13.44" width="131.83" height="25.28" style="fill: #909194; opacity: .66; stroke-width: 0px;"/>
      <g>
        <path d="M638.28,20.96h-3.2v8.88h-1.31v-8.88h-3.19v-1.07h7.7v1.07Z" style="fill: #000; stroke-width: 0px;"/>
        <path d="M641.95,29.98c-1,0-1.82-.33-2.45-.99s-.94-1.54-.94-2.64v-.23c0-.73.14-1.39.42-1.97.28-.58.67-1.03,1.18-1.35.5-.33,1.05-.49,1.64-.49.96,0,1.71.32,2.24.95s.8,1.54.8,2.72v.53h-5.01c.02.73.23,1.32.64,1.77.41.45.93.67,1.55.67.45,0,.82-.09,1.13-.27s.58-.42.81-.72l.77.6c-.62.95-1.55,1.43-2.79,1.43ZM641.79,23.35c-.51,0-.94.19-1.29.56s-.56.89-.64,1.56h3.71v-.1c-.04-.64-.21-1.14-.52-1.49s-.73-.53-1.26-.53Z" style="fill: #000; stroke-width: 0px;"/>
        <path d="M650.6,27.88c0-.34-.13-.61-.39-.8-.26-.19-.71-.35-1.35-.49-.64-.14-1.15-.3-1.53-.49-.38-.19-.65-.42-.83-.68-.18-.26-.27-.58-.27-.94,0-.61.26-1.12.77-1.54.51-.42,1.17-.63,1.96-.63.84,0,1.52.22,2.04.65.52.43.78.99.78,1.66h-1.27c0-.35-.15-.65-.44-.9-.29-.25-.66-.38-1.11-.38s-.82.1-1.08.3-.39.46-.39.79c0,.31.12.54.36.69s.68.3,1.31.44c.63.14,1.14.31,1.54.51s.68.43.87.71c.19.28.28.61.28,1.01,0,.66-.26,1.19-.79,1.59s-1.21.6-2.06.6c-.59,0-1.12-.1-1.57-.31s-.81-.5-1.07-.88c-.26-.38-.39-.78-.39-1.22h1.26c.02.42.19.76.51,1.01.32.25.73.37,1.25.37.48,0,.86-.1,1.15-.29.29-.19.43-.45.43-.78Z" style="fill: #000; stroke-width: 0px;"/>
        <path d="M655.23,20.65v1.79h1.38v.98h-1.38v4.59c0,.3.06.52.18.67.12.15.33.22.63.22.15,0,.35-.03.6-.08v1.02c-.33.09-.66.14-.97.14-.56,0-.99-.17-1.28-.51s-.43-.83-.43-1.46v-4.59h-1.35v-.98h1.35v-1.79h1.26Z" style="fill: #000; stroke-width: 0px;"/>
        <path d="M661.16,29.98c-1,0-1.82-.33-2.45-.99s-.94-1.54-.94-2.64v-.23c0-.73.14-1.39.42-1.97.28-.58.67-1.03,1.18-1.35.5-.33,1.05-.49,1.64-.49.96,0,1.71.32,2.24.95s.8,1.54.8,2.72v.53h-5.01c.02.73.23,1.32.64,1.77.41.45.93.67,1.55.67.45,0,.82-.09,1.13-.27s.58-.42.81-.72l.77.6c-.62.95-1.55,1.43-2.79,1.43ZM661,23.35c-.51,0-.94.19-1.29.56s-.56.89-.64,1.56h3.71v-.1c-.04-.64-.21-1.14-.52-1.49s-.73-.53-1.26-.53Z" style="fill: #000; stroke-width: 0px;"/>
        <path d="M665.2,26.08c0-1.13.27-2.05.81-2.74s1.24-1.04,2.11-1.04,1.55.3,2.06.89v-3.86h1.26v10.5h-1.16l-.06-.79c-.51.62-1.21.93-2.11.93s-1.55-.35-2.1-1.05c-.54-.7-.81-1.62-.81-2.75v-.1ZM666.46,26.23c0,.84.17,1.49.52,1.97s.82.71,1.44.71c.8,0,1.39-.36,1.76-1.08v-3.4c-.38-.7-.96-1.05-1.74-1.05-.62,0-1.1.24-1.45.72s-.52,1.19-.52,2.13Z" style="fill: #000; stroke-width: 0px;"/>
        <path d="M684.71,29.84h-1.32l-5.01-7.67v7.67h-1.32v-9.95h1.32l5.02,7.7v-7.7h1.31v9.95Z" style="fill: #000; stroke-width: 0px;"/>
        <path d="M689.92,29.98c-1,0-1.82-.33-2.45-.99s-.94-1.54-.94-2.64v-.23c0-.73.14-1.39.42-1.97.28-.58.67-1.03,1.18-1.35.5-.33,1.05-.49,1.64-.49.96,0,1.71.32,2.24.95s.8,1.54.8,2.72v.53h-5.01c.02.73.23,1.32.64,1.77.41.45.93.67,1.56.67.45,0,.83-.09,1.13-.27s.58-.42.81-.72l.77.6c-.62.95-1.55,1.43-2.79,1.43ZM689.76,23.35c-.51,0-.94.19-1.29.56s-.56.89-.64,1.56h3.71v-.1c-.04-.64-.21-1.14-.52-1.49s-.73-.53-1.26-.53Z" style="fill: #000; stroke-width: 0px;"/>
        <path d="M693.96,26.08c0-1.15.27-2.07.8-2.75s1.24-1.02,2.12-1.02,1.61.32,2.11.96l.06-.82h1.16v7.22c0,.96-.28,1.71-.85,2.26-.57.55-1.33.83-2.29.83-.53,0-1.05-.11-1.57-.34s-.9-.54-1.17-.94l.66-.76c.54.67,1.21,1,1.99,1,.62,0,1.09-.17,1.44-.52.34-.35.52-.83.52-1.46v-.64c-.51.58-1.2.88-2.07.88s-1.57-.35-2.1-1.05c-.54-.7-.8-1.65-.8-2.85ZM695.23,26.23c0,.83.17,1.49.51,1.97s.82.71,1.44.71c.8,0,1.38-.36,1.76-1.09v-3.38c-.39-.71-.97-1.06-1.74-1.06-.62,0-1.1.24-1.44.72s-.52,1.19-.52,2.13Z" style="fill: #000; stroke-width: 0px;"/>
        <path d="M706.68,29.84c-.07-.15-.13-.41-.18-.78-.59.61-1.29.92-2.11.92-.73,0-1.33-.21-1.79-.62-.47-.41-.7-.94-.7-1.57,0-.77.29-1.37.88-1.79.59-.43,1.41-.64,2.47-.64h1.23v-.58c0-.44-.13-.79-.4-1.06s-.65-.39-1.17-.39c-.45,0-.83.11-1.13.34s-.46.5-.46.83h-1.27c0-.37.13-.73.39-1.07.26-.34.62-.62,1.07-.82.45-.2.94-.3,1.48-.3.85,0,1.52.21,2,.64s.73,1.01.75,1.76v3.4c0,.68.09,1.22.26,1.62v.11h-1.33ZM704.58,28.88c.4,0,.77-.1,1.13-.31s.61-.47.77-.8v-1.52h-.99c-1.55,0-2.32.45-2.32,1.36,0,.4.13.71.4.93s.6.33,1.02.33Z" style="fill: #000; stroke-width: 0px;"/>
        <path d="M711.45,20.65v1.79h1.38v.98h-1.38v4.59c0,.3.06.52.18.67.12.15.33.22.63.22.15,0,.35-.03.6-.08v1.02c-.33.09-.66.14-.97.14-.56,0-.99-.17-1.28-.51s-.43-.83-.43-1.46v-4.59h-1.35v-.98h1.35v-1.79h1.26Z" style="fill: #000; stroke-width: 0px;"/>
        <path d="M714.31,20.48c0-.21.06-.38.19-.52.13-.14.31-.21.56-.21s.43.07.56.21.19.31.19.52-.06.38-.19.51-.31.21-.56.21-.43-.07-.56-.21c-.12-.14-.19-.31-.19-.51ZM715.68,29.84h-1.26v-7.4h1.26v7.4Z" style="fill: #000; stroke-width: 0px;"/>
        <path d="M720.14,28.13l1.83-5.68h1.29l-2.65,7.4h-.96l-2.68-7.4h1.29l1.88,5.68Z" style="fill: #000; stroke-width: 0px;"/>
        <path d="M727.46,29.98c-1,0-1.82-.33-2.45-.99s-.94-1.54-.94-2.64v-.23c0-.73.14-1.39.42-1.97.28-.58.67-1.03,1.18-1.35.5-.33,1.05-.49,1.64-.49.96,0,1.71.32,2.24.95s.8,1.54.8,2.72v.53h-5.01c.02.73.23,1.32.64,1.77.41.45.93.67,1.55.67.45,0,.82-.09,1.13-.27s.58-.42.81-.72l.77.6c-.62.95-1.55,1.43-2.79,1.43ZM727.31,23.35c-.51,0-.94.19-1.29.56s-.56.89-.64,1.56h3.71v-.1c-.04-.64-.21-1.14-.52-1.49s-.73-.53-1.26-.53Z" style="fill: #000; stroke-width: 0px;"/>
      </g>
    </g>
  </g>
  <g id="uuid-ade2166d-c68d-4f44-bb08-b34dd0f9b7a1" data-name="Layer 1">
    <g>
      <circle cx="31.66" cy="65.93" r="4.6" style="fill: #e48b3d; stroke-width: 0px;"/>
      <path d="M36.35,72.37h-9.26c-.96,0-1.73.77-1.73,1.73v11.13c0,.96.77,1.73,1.73,1.73h.49v10.93c0,.77.62,1.39,1.39,1.39h5.44c.77,0,1.39-.62,1.39-1.39v-10.93h.55c.96,0,1.73-.77,1.73-1.73v-11.13c0-.96-.77-1.73-1.73-1.73Z" style="fill: #e48b3d; stroke-width: 0px;"/>
    </g>
    <g>
      <circle cx="78.66" cy="65.93" r="4.6" style="fill: #e48b3d; stroke-width: 0px;"/>
      <path d="M83.35,72.37h-9.26c-.96,0-1.73.77-1.73,1.73v11.13c0,.96.77,1.73,1.73,1.73h.49v10.93c0,.77.62,1.39,1.39,1.39h5.44c.77,0,1.39-.62,1.39-1.39v-10.93h.55c.96,0,1.73-.77,1.73-1.73v-11.13c0-.96-.77-1.73-1.73-1.73Z" style="fill: #e48b3d; stroke-width: 0px;"/>
    </g>
    <g>
      <circle cx="136.66" cy="65.93" r="4.6" style="fill: #e48b3d; stroke-width: 0px;"/>
      <path d="M141.35,72.37h-9.26c-.96,0-1.73.77-1.73,1.73v11.13c0,.96.77,1.73,1.73,1.73h.49v10.93c0,.77.62,1.39,1.39,1.39h5.44c.77,0,1.39-.62,1.39-1.39v-10.93h.55c.96,0,1.73-.77,1.73-1.73v-11.13c0-.96-.77-1.73-1.73-1.73Z" style="fill: #e48b3d; stroke-width: 0px;"/>
    </g>
    <g>
      <circle cx="183.66" cy="65.93" r="4.6" style="fill: #e48b3d; stroke-width: 0px;"/>
      <path d="M188.35,72.37h-9.26c-.96,0-1.73.77-1.73,1.73v11.13c0,.96.77,1.73,1.73,1.73h.49v10.93c0,.77.62,1.39,1.39,1.39h5.44c.77,0,1.39-.62,1.39-1.39v-10.93h.55c.96,0,1.73-.77,1.73-1.73v-11.13c0-.96-.77-1.73-1.73-1.73Z" style="fill: #e48b3d; stroke-width: 0px;"/>
    </g>
    <g>
      <circle cx="231.66" cy="65.93" r="4.6" style="fill: #e48b3d; stroke-width: 0px;"/>
      <path d="M236.35,72.37h-9.26c-.96,0-1.73.77-1.73,1.73v11.13c0,.96.77,1.73,1.73,1.73h.49v10.93c0,.77.62,1.39,1.39,1.39h5.44c.77,0,1.39-.62,1.39-1.39v-10.93h.55c.96,0,1.73-.77,1.73-1.73v-11.13c0-.96-.77-1.73-1.73-1.73Z" style="fill: #e48b3d; stroke-width: 0px;"/>
    </g>
    <g>
      <circle cx="278.66" cy="65.93" r="4.6" style="fill: #e48b3d; stroke-width: 0px;"/>
      <path d="M283.35,72.37h-9.26c-.96,0-1.73.77-1.73,1.73v11.13c0,.96.77,1.73,1.73,1.73h.49v10.93c0,.77.62,1.39,1.39,1.39h5.44c.77,0,1.39-.62,1.39-1.39v-10.93h.55c.96,0,1.73-.77,1.73-1.73v-11.13c0-.96-.77-1.73-1.73-1.73Z" style="fill: #e48b3d; stroke-width: 0px;"/>
    </g>
    <g>
      <circle cx="324.66" cy="65.93" r="4.6" style="fill: #e48b3d; stroke-width: 0px;"/>
      <path d="M329.35,72.37h-9.26c-.96,0-1.73.77-1.73,1.73v11.13c0,.96.77,1.73,1.73,1.73h.49v10.93c0,.77.62,1.39,1.39,1.39h5.44c.77,0,1.39-.62,1.39-1.39v-10.93h.55c.96,0,1.73-.77,1.73-1.73v-11.13c0-.96-.77-1.73-1.73-1.73Z" style="fill: #e48b3d; stroke-width: 0px;"/>
    </g>
    <g>
      <circle cx="371.66" cy="65.93" r="4.6" style="fill: #e48b3d; stroke-width: 0px;"/>
      <path d="M376.35,72.37h-9.26c-.96,0-1.73.77-1.73,1.73v11.13c0,.96.77,1.73,1.73,1.73h.49v10.93c0,.77.62,1.39,1.39,1.39h5.44c.77,0,1.39-.62,1.39-1.39v-10.93h.55c.96,0,1.73-.77,1.73-1.73v-11.13c0-.96-.77-1.73-1.73-1.73Z" style="fill: #e48b3d; stroke-width: 0px;"/>
    </g>
    <g>
      <circle cx="416.66" cy="65.93" r="4.6" style="fill: #e48b3d; stroke-width: 0px;"/>
      <path d="M421.35,72.37h-9.26c-.96,0-1.73.77-1.73,1.73v11.13c0,.96.77,1.73,1.73,1.73h.49v10.93c0,.77.62,1.39,1.39,1.39h5.44c.77,0,1.39-.62,1.39-1.39v-10.93h.55c.96,0,1.73-.77,1.73-1.73v-11.13c0-.96-.77-1.73-1.73-1.73Z" style="fill: #e48b3d; stroke-width: 0px;"/>
    </g>
    <g>
      <circle cx="511.66" cy="65.93" r="4.6" style="fill: #909194; stroke-width: 0px;"/>
      <path d="M516.35,72.37h-9.26c-.96,0-1.73.77-1.73,1.73v11.13c0,.96.77,1.73,1.73,1.73h.49v10.93c0,.77.62,1.39,1.39,1.39h5.44c.77,0,1.39-.62,1.39-1.39v-10.93h.55c.96,0,1.73-.77,1.73-1.73v-11.13c0-.96-.77-1.73-1.73-1.73Z" style="fill: #909194; stroke-width: 0px;"/>
    </g>
    <g>
      <circle cx="558.66" cy="65.93" r="4.6" style="fill: #909194; stroke-width: 0px;"/>
      <path d="M563.35,72.37h-9.26c-.96,0-1.73.77-1.73,1.73v11.13c0,.96.77,1.73,1.73,1.73h.49v10.93c0,.77.62,1.39,1.39,1.39h5.44c.77,0,1.39-.62,1.39-1.39v-10.93h.55c.96,0,1.73-.77,1.73-1.73v-11.13c0-.96-.77-1.73-1.73-1.73Z" style="fill: #909194; stroke-width: 0px;"/>
    </g>
    <g>
      <circle cx="604.66" cy="65.93" r="4.6" style="fill: #909194; stroke-width: 0px;"/>
      <path d="M609.35,72.37h-9.26c-.96,0-1.73.77-1.73,1.73v11.13c0,.96.77,1.73,1.73,1.73h.49v10.93c0,.77.62,1.39,1.39,1.39h5.44c.77,0,1.39-.62,1.39-1.39v-10.93h.55c.96,0,1.73-.77,1.73-1.73v-11.13c0-.96-.77-1.73-1.73-1.73Z" style="fill: #909194; stroke-width: 0px;"/>
    </g>
    <g>
      <circle cx="651.66" cy="65.93" r="4.6" style="fill: #909194; stroke-width: 0px;"/>
      <path d="M656.35,72.37h-9.26c-.96,0-1.73.77-1.73,1.73v11.13c0,.96.77,1.73,1.73,1.73h.49v10.93c0,.77.62,1.39,1.39,1.39h5.44c.77,0,1.39-.62,1.39-1.39v-10.93h.55c.96,0,1.73-.77,1.73-1.73v-11.13c0-.96-.77-1.73-1.73-1.73Z" style="fill: #909194; stroke-width: 0px;"/>
    </g>
    <g>
      <circle cx="697.66" cy="65.93" r="4.6" style="fill: #909194; stroke-width: 0px;"/>
      <path d="M702.35,72.37h-9.26c-.96,0-1.73.77-1.73,1.73v11.13c0,.96.77,1.73,1.73,1.73h.49v10.93c0,.77.62,1.39,1.39,1.39h5.44c.77,0,1.39-.62,1.39-1.39v-10.93h.55c.96,0,1.73-.77,1.73-1.73v-11.13c0-.96-.77-1.73-1.73-1.73Z" style="fill: #909194; stroke-width: 0px;"/>
    </g>
    <g>
      <circle cx="745.66" cy="65.93" r="4.6" style="fill: #909194; stroke-width: 0px;"/>
      <path d="M750.35,72.37h-9.26c-.96,0-1.73.77-1.73,1.73v11.13c0,.96.77,1.73,1.73,1.73h.49v10.93c0,.77.62,1.39,1.39,1.39h5.44c.77,0,1.39-.62,1.39-1.39v-10.93h.55c.96,0,1.73-.77,1.73-1.73v-11.13c0-.96-.77-1.73-1.73-1.73Z" style="fill: #909194; stroke-width: 0px;"/>
    </g>
    <g>
      <circle cx="792.66" cy="65.93" r="4.6" style="fill: #909194; stroke-width: 0px;"/>
      <path d="M797.35,72.37h-9.26c-.96,0-1.73.77-1.73,1.73v11.13c0,.96.77,1.73,1.73,1.73h.49v10.93c0,.77.62,1.39,1.39,1.39h5.44c.77,0,1.39-.62,1.39-1.39v-10.93h.55c.96,0,1.73-.77,1.73-1.73v-11.13c0-.96-.77-1.73-1.73-1.73Z" style="fill: #909194; stroke-width: 0px;"/>
    </g>
    <g>
      <circle cx="838.66" cy="65.93" r="4.6" style="fill: #909194; stroke-width: 0px;"/>
      <path d="M843.35,72.37h-9.26c-.96,0-1.73.77-1.73,1.73v11.13c0,.96.77,1.73,1.73,1.73h.49v10.93c0,.77.62,1.39,1.39,1.39h5.44c.77,0,1.39-.62,1.39-1.39v-10.93h.55c.96,0,1.73-.77,1.73-1.73v-11.13c0-.96-.77-1.73-1.73-1.73Z" style="fill: #909194; stroke-width: 0px;"/>
    </g>
    <g>
      <circle cx="885.66" cy="65.93" r="4.6" style="fill: #909194; stroke-width: 0px;"/>
      <path d="M890.35,72.37h-9.26c-.96,0-1.73.77-1.73,1.73v11.13c0,.96.77,1.73,1.73,1.73h.49v10.93c0,.77.62,1.39,1.39,1.39h5.44c.77,0,1.39-.62,1.39-1.39v-10.93h.55c.96,0,1.73-.77,1.73-1.73v-11.13c0-.96-.77-1.73-1.73-1.73Z" style="fill: #909194; stroke-width: 0px;"/>
    </g>
    <g>
      <circle cx="31.66" cy="112.9" r="4.6" style="fill: #e48b3d; stroke-width: 0px;"/>
      <path d="M36.35,119.34h-9.26c-.96,0-1.73.77-1.73,1.73v11.13c0,.96.77,1.73,1.73,1.73h.49v10.93c0,.77.62,1.39,1.39,1.39h5.44c.77,0,1.39-.62,1.39-1.39v-10.93h.55c.96,0,1.73-.77,1.73-1.73v-11.13c0-.96-.77-1.73-1.73-1.73Z" style="fill: #e48b3d; stroke-width: 0px;"/>
    </g>
    <g>
      <circle cx="78.66" cy="112.9" r="4.6" style="fill: #e48b3d; stroke-width: 0px;"/>
      <path d="M83.35,119.34h-9.26c-.96,0-1.73.77-1.73,1.73v11.13c0,.96.77,1.73,1.73,1.73h.49v10.93c0,.77.62,1.39,1.39,1.39h5.44c.77,0,1.39-.62,1.39-1.39v-10.93h.55c.96,0,1.73-.77,1.73-1.73v-11.13c0-.96-.77-1.73-1.73-1.73Z" style="fill: #e48b3d; stroke-width: 0px;"/>
    </g>
    <g>
      <circle cx="136.66" cy="112.9" r="4.6" style="fill: #e48b3d; stroke-width: 0px;"/>
      <path d="M141.35,119.34h-9.26c-.96,0-1.73.77-1.73,1.73v11.13c0,.96.77,1.73,1.73,1.73h.49v10.93c0,.77.62,1.39,1.39,1.39h5.44c.77,0,1.39-.62,1.39-1.39v-10.93h.55c.96,0,1.73-.77,1.73-1.73v-11.13c0-.96-.77-1.73-1.73-1.73Z" style="fill: #e48b3d; stroke-width: 0px;"/>
    </g>
    <g>
      <circle cx="183.66" cy="112.9" r="4.6" style="fill: #e48b3d; stroke-width: 0px;"/>
      <path d="M188.35,119.34h-9.26c-.96,0-1.73.77-1.73,1.73v11.13c0,.96.77,1.73,1.73,1.73h.49v10.93c0,.77.62,1.39,1.39,1.39h5.44c.77,0,1.39-.62,1.39-1.39v-10.93h.55c.96,0,1.73-.77,1.73-1.73v-11.13c0-.96-.77-1.73-1.73-1.73Z" style="fill: #e48b3d; stroke-width: 0px;"/>
    </g>
    <g>
      <circle cx="231.66" cy="112.9" r="4.6" style="fill: #e48b3d; stroke-width: 0px;"/>
      <path d="M236.35,119.34h-9.26c-.96,0-1.73.77-1.73,1.73v11.13c0,.96.77,1.73,1.73,1.73h.49v10.93c0,.77.62,1.39,1.39,1.39h5.44c.77,0,1.39-.62,1.39-1.39v-10.93h.55c.96,0,1.73-.77,1.73-1.73v-11.13c0-.96-.77-1.73-1.73-1.73Z" style="fill: #e48b3d; stroke-width: 0px;"/>
    </g>
    <g>
      <circle cx="278.66" cy="112.9" r="4.6" style="fill: #e48b3d; stroke-width: 0px;"/>
      <path d="M283.35,119.34h-9.26c-.96,0-1.73.77-1.73,1.73v11.13c0,.96.77,1.73,1.73,1.73h.49v10.93c0,.77.62,1.39,1.39,1.39h5.44c.77,0,1.39-.62,1.39-1.39v-10.93h.55c.96,0,1.73-.77,1.73-1.73v-11.13c0-.96-.77-1.73-1.73-1.73Z" style="fill: #e48b3d; stroke-width: 0px;"/>
    </g>
    <g>
      <circle cx="324.66" cy="112.9" r="4.6" style="fill: #e48b3d; stroke-width: 0px;"/>
      <path d="M329.35,119.34h-9.26c-.96,0-1.73.77-1.73,1.73v11.13c0,.96.77,1.73,1.73,1.73h.49v10.93c0,.77.62,1.39,1.39,1.39h5.44c.77,0,1.39-.62,1.39-1.39v-10.93h.55c.96,0,1.73-.77,1.73-1.73v-11.13c0-.96-.77-1.73-1.73-1.73Z" style="fill: #e48b3d; stroke-width: 0px;"/>
    </g>
    <g>
      <circle cx="371.66" cy="112.9" r="4.6" style="fill: #e48b3d; stroke-width: 0px;"/>
      <path d="M376.35,119.34h-9.26c-.96,0-1.73.77-1.73,1.73v11.13c0,.96.77,1.73,1.73,1.73h.49v10.93c0,.77.62,1.39,1.39,1.39h5.44c.77,0,1.39-.62,1.39-1.39v-10.93h.55c.96,0,1.73-.77,1.73-1.73v-11.13c0-.96-.77-1.73-1.73-1.73Z" style="fill: #e48b3d; stroke-width: 0px;"/>
    </g>
    <g>
      <circle cx="511.66" cy="112.9" r="4.6" style="fill: #909194; stroke-width: 0px;"/>
      <path d="M516.35,119.34h-9.26c-.96,0-1.73.77-1.73,1.73v11.13c0,.96.77,1.73,1.73,1.73h.49v10.93c0,.77.62,1.39,1.39,1.39h5.44c.77,0,1.39-.62,1.39-1.39v-10.93h.55c.96,0,1.73-.77,1.73-1.73v-11.13c0-.96-.77-1.73-1.73-1.73Z" style="fill: #909194; stroke-width: 0px;"/>
    </g>
    <g>
      <circle cx="558.66" cy="112.9" r="4.6" style="fill: #909194; stroke-width: 0px;"/>
      <path d="M563.35,119.34h-9.26c-.96,0-1.73.77-1.73,1.73v11.13c0,.96.77,1.73,1.73,1.73h.49v10.93c0,.77.62,1.39,1.39,1.39h5.44c.77,0,1.39-.62,1.39-1.39v-10.93h.55c.96,0,1.73-.77,1.73-1.73v-11.13c0-.96-.77-1.73-1.73-1.73Z" style="fill: #909194; stroke-width: 0px;"/>
    </g>
    <g>
      <circle cx="604.66" cy="112.9" r="4.6" style="fill: #909194; stroke-width: 0px;"/>
      <path d="M609.35,119.34h-9.26c-.96,0-1.73.77-1.73,1.73v11.13c0,.96.77,1.73,1.73,1.73h.49v10.93c0,.77.62,1.39,1.39,1.39h5.44c.77,0,1.39-.62,1.39-1.39v-10.93h.55c.96,0,1.73-.77,1.73-1.73v-11.13c0-.96-.77-1.73-1.73-1.73Z" style="fill: #909194; stroke-width: 0px;"/>
    </g>
    <g>
      <circle cx="651.66" cy="112.9" r="4.6" style="fill: #909194; stroke-width: 0px;"/>
      <path d="M656.35,119.34h-9.26c-.96,0-1.73.77-1.73,1.73v11.13c0,.96.77,1.73,1.73,1.73h.49v10.93c0,.77.62,1.39,1.39,1.39h5.44c.77,0,1.39-.62,1.39-1.39v-10.93h.55c.96,0,1.73-.77,1.73-1.73v-11.13c0-.96-.77-1.73-1.73-1.73Z" style="fill: #909194; stroke-width: 0px;"/>
    </g>
    <g>
      <circle cx="697.66" cy="112.9" r="4.6" style="fill: #909194; stroke-width: 0px;"/>
      <path d="M702.35,119.34h-9.26c-.96,0-1.73.77-1.73,1.73v11.13c0,.96.77,1.73,1.73,1.73h.49v10.93c0,.77.62,1.39,1.39,1.39h5.44c.77,0,1.39-.62,1.39-1.39v-10.93h.55c.96,0,1.73-.77,1.73-1.73v-11.13c0-.96-.77-1.73-1.73-1.73Z" style="fill: #909194; stroke-width: 0px;"/>
    </g>
    <g>
      <circle cx="745.66" cy="112.9" r="4.6" style="fill: #909194; stroke-width: 0px;"/>
      <path d="M750.35,119.34h-9.26c-.96,0-1.73.77-1.73,1.73v11.13c0,.96.77,1.73,1.73,1.73h.49v10.93c0,.77.62,1.39,1.39,1.39h5.44c.77,0,1.39-.62,1.39-1.39v-10.93h.55c.96,0,1.73-.77,1.73-1.73v-11.13c0-.96-.77-1.73-1.73-1.73Z" style="fill: #909194; stroke-width: 0px;"/>
    </g>
    <g>
      <circle cx="792.66" cy="112.9" r="4.6" style="fill: #909194; stroke-width: 0px;"/>
      <path d="M797.35,119.34h-9.26c-.96,0-1.73.77-1.73,1.73v11.13c0,.96.77,1.73,1.73,1.73h.49v10.93c0,.77.62,1.39,1.39,1.39h5.44c.77,0,1.39-.62,1.39-1.39v-10.93h.55c.96,0,1.73-.77,1.73-1.73v-11.13c0-.96-.77-1.73-1.73-1.73Z" style="fill: #909194; stroke-width: 0px;"/>
    </g>
    <g>
      <circle cx="838.66" cy="112.9" r="4.6" style="fill: #909194; stroke-width: 0px;"/>
      <path d="M843.35,119.34h-9.26c-.96,0-1.73.77-1.73,1.73v11.13c0,.96.77,1.73,1.73,1.73h.49v10.93c0,.77.62,1.39,1.39,1.39h5.44c.77,0,1.39-.62,1.39-1.39v-10.93h.55c.96,0,1.73-.77,1.73-1.73v-11.13c0-.96-.77-1.73-1.73-1.73Z" style="fill: #909194; stroke-width: 0px;"/>
    </g>
    <g>
      <circle cx="885.66" cy="112.9" r="4.6" style="fill: #909194; stroke-width: 0px;"/>
      <path d="M890.35,119.34h-9.26c-.96,0-1.73.77-1.73,1.73v11.13c0,.96.77,1.73,1.73,1.73h.49v10.93c0,.77.62,1.39,1.39,1.39h5.44c.77,0,1.39-.62,1.39-1.39v-10.93h.55c.96,0,1.73-.77,1.73-1.73v-11.13c0-.96-.77-1.73-1.73-1.73Z" style="fill: #909194; stroke-width: 0px;"/>
    </g>
    <g>
      <circle cx="31.66" cy="251.93" r="4.6" style="fill: #909194; stroke-width: 0px;"/>
      <path d="M36.35,258.37h-9.26c-.96,0-1.73.77-1.73,1.73v11.13c0,.96.77,1.73,1.73,1.73h.49v10.93c0,.77.62,1.39,1.39,1.39h5.44c.77,0,1.39-.62,1.39-1.39v-10.93h.55c.96,0,1.73-.77,1.73-1.73v-11.13c0-.96-.77-1.73-1.73-1.73Z" style="fill: #909194; stroke-width: 0px;"/>
    </g>
    <g>
      <circle cx="78.66" cy="251.93" r="4.6" style="fill: #909194; stroke-width: 0px;"/>
      <path d="M83.35,258.37h-9.26c-.96,0-1.73.77-1.73,1.73v11.13c0,.96.77,1.73,1.73,1.73h.49v10.93c0,.77.62,1.39,1.39,1.39h5.44c.77,0,1.39-.62,1.39-1.39v-10.93h.55c.96,0,1.73-.77,1.73-1.73v-11.13c0-.96-.77-1.73-1.73-1.73Z" style="fill: #909194; stroke-width: 0px;"/>
    </g>
    <g>
      <circle cx="136.66" cy="159.83" r="4.6" style="fill: #909194; stroke-width: 0px;"/>
      <path d="M141.35,166.26h-9.26c-.96,0-1.73.77-1.73,1.73v11.13c0,.96.77,1.73,1.73,1.73h.49v10.93c0,.77.62,1.39,1.39,1.39h5.44c.77,0,1.39-.62,1.39-1.39v-10.93h.55c.96,0,1.73-.77,1.73-1.73v-11.13c0-.96-.77-1.73-1.73-1.73Z" style="fill: #909194; stroke-width: 0px;"/>
    </g>
    <g>
      <circle cx="183.66" cy="159.83" r="4.6" style="fill: #909194; stroke-width: 0px;"/>
      <path d="M188.35,166.26h-9.26c-.96,0-1.73.77-1.73,1.73v11.13c0,.96.77,1.73,1.73,1.73h.49v10.93c0,.77.62,1.39,1.39,1.39h5.44c.77,0,1.39-.62,1.39-1.39v-10.93h.55c.96,0,1.73-.77,1.73-1.73v-11.13c0-.96-.77-1.73-1.73-1.73Z" style="fill: #909194; stroke-width: 0px;"/>
    </g>
    <g>
      <circle cx="231.66" cy="159.83" r="4.6" style="fill: #909194; stroke-width: 0px;"/>
      <path d="M236.35,166.26h-9.26c-.96,0-1.73.77-1.73,1.73v11.13c0,.96.77,1.73,1.73,1.73h.49v10.93c0,.77.62,1.39,1.39,1.39h5.44c.77,0,1.39-.62,1.39-1.39v-10.93h.55c.96,0,1.73-.77,1.73-1.73v-11.13c0-.96-.77-1.73-1.73-1.73Z" style="fill: #909194; stroke-width: 0px;"/>
    </g>
    <g>
      <circle cx="278.66" cy="159.83" r="4.6" style="fill: #909194; stroke-width: 0px;"/>
      <path d="M283.35,166.26h-9.26c-.96,0-1.73.77-1.73,1.73v11.13c0,.96.77,1.73,1.73,1.73h.49v10.93c0,.77.62,1.39,1.39,1.39h5.44c.77,0,1.39-.62,1.39-1.39v-10.93h.55c.96,0,1.73-.77,1.73-1.73v-11.13c0-.96-.77-1.73-1.73-1.73Z" style="fill: #909194; stroke-width: 0px;"/>
    </g>
    <g>
      <circle cx="324.66" cy="159.83" r="4.6" style="fill: #909194; stroke-width: 0px;"/>
      <path d="M329.35,166.26h-9.26c-.96,0-1.73.77-1.73,1.73v11.13c0,.96.77,1.73,1.73,1.73h.49v10.93c0,.77.62,1.39,1.39,1.39h5.44c.77,0,1.39-.62,1.39-1.39v-10.93h.55c.96,0,1.73-.77,1.73-1.73v-11.13c0-.96-.77-1.73-1.73-1.73Z" style="fill: #909194; stroke-width: 0px;"/>
    </g>
    <g>
      <circle cx="371.66" cy="159.83" r="4.6" style="fill: #909194; stroke-width: 0px;"/>
      <path d="M376.35,166.26h-9.26c-.96,0-1.73.77-1.73,1.73v11.13c0,.96.77,1.73,1.73,1.73h.49v10.93c0,.77.62,1.39,1.39,1.39h5.44c.77,0,1.39-.62,1.39-1.39v-10.93h.55c.96,0,1.73-.77,1.73-1.73v-11.13c0-.96-.77-1.73-1.73-1.73Z" style="fill: #909194; stroke-width: 0px;"/>
    </g>
    <g>
      <circle cx="416.66" cy="159.83" r="4.6" style="fill: #909194; stroke-width: 0px;"/>
      <path d="M421.35,166.26h-9.26c-.96,0-1.73.77-1.73,1.73v11.13c0,.96.77,1.73,1.73,1.73h.49v10.93c0,.77.62,1.39,1.39,1.39h5.44c.77,0,1.39-.62,1.39-1.39v-10.93h.55c.96,0,1.73-.77,1.73-1.73v-11.13c0-.96-.77-1.73-1.73-1.73Z" style="fill: #909194; stroke-width: 0px;"/>
    </g>
    <g>
      <circle cx="463.66" cy="65.93" r="4.6" style="fill: #909194; stroke-width: 0px;"/>
      <path d="M468.35,72.37h-9.26c-.96,0-1.73.77-1.73,1.73v11.13c0,.96.77,1.73,1.73,1.73h.49v10.93c0,.77.62,1.39,1.39,1.39h5.44c.77,0,1.39-.62,1.39-1.39v-10.93h.55c.96,0,1.73-.77,1.73-1.73v-11.13c0-.96-.77-1.73-1.73-1.73Z" style="fill: #909194; stroke-width: 0px;"/>
    </g>
    <g>
      <circle cx="511.66" cy="159.83" r="4.6" style="fill: #909194; stroke-width: 0px;"/>
      <path d="M516.35,166.26h-9.26c-.96,0-1.73.77-1.73,1.73v11.13c0,.96.77,1.73,1.73,1.73h.49v10.93c0,.77.62,1.39,1.39,1.39h5.44c.77,0,1.39-.62,1.39-1.39v-10.93h.55c.96,0,1.73-.77,1.73-1.73v-11.13c0-.96-.77-1.73-1.73-1.73Z" style="fill: #909194; stroke-width: 0px;"/>
    </g>
    <g>
      <circle cx="558.66" cy="159.83" r="4.6" style="fill: #909194; stroke-width: 0px;"/>
      <path d="M563.35,166.26h-9.26c-.96,0-1.73.77-1.73,1.73v11.13c0,.96.77,1.73,1.73,1.73h.49v10.93c0,.77.62,1.39,1.39,1.39h5.44c.77,0,1.39-.62,1.39-1.39v-10.93h.55c.96,0,1.73-.77,1.73-1.73v-11.13c0-.96-.77-1.73-1.73-1.73Z" style="fill: #909194; stroke-width: 0px;"/>
    </g>
    <g>
      <circle cx="604.66" cy="159.83" r="4.6" style="fill: #909194; stroke-width: 0px;"/>
      <path d="M609.35,166.26h-9.26c-.96,0-1.73.77-1.73,1.73v11.13c0,.96.77,1.73,1.73,1.73h.49v10.93c0,.77.62,1.39,1.39,1.39h5.44c.77,0,1.39-.62,1.39-1.39v-10.93h.55c.96,0,1.73-.77,1.73-1.73v-11.13c0-.96-.77-1.73-1.73-1.73Z" style="fill: #909194; stroke-width: 0px;"/>
    </g>
    <g>
      <circle cx="651.66" cy="159.83" r="4.6" style="fill: #909194; stroke-width: 0px;"/>
      <path d="M656.35,166.26h-9.26c-.96,0-1.73.77-1.73,1.73v11.13c0,.96.77,1.73,1.73,1.73h.49v10.93c0,.77.62,1.39,1.39,1.39h5.44c.77,0,1.39-.62,1.39-1.39v-10.93h.55c.96,0,1.73-.77,1.73-1.73v-11.13c0-.96-.77-1.73-1.73-1.73Z" style="fill: #909194; stroke-width: 0px;"/>
    </g>
    <g>
      <circle cx="697.66" cy="159.83" r="4.6" style="fill: #909194; stroke-width: 0px;"/>
      <path d="M702.35,166.26h-9.26c-.96,0-1.73.77-1.73,1.73v11.13c0,.96.77,1.73,1.73,1.73h.49v10.93c0,.77.62,1.39,1.39,1.39h5.44c.77,0,1.39-.62,1.39-1.39v-10.93h.55c.96,0,1.73-.77,1.73-1.73v-11.13c0-.96-.77-1.73-1.73-1.73Z" style="fill: #909194; stroke-width: 0px;"/>
    </g>
    <g>
      <circle cx="745.66" cy="159.83" r="4.6" style="fill: #909194; stroke-width: 0px;"/>
      <path d="M750.35,166.26h-9.26c-.96,0-1.73.77-1.73,1.73v11.13c0,.96.77,1.73,1.73,1.73h.49v10.93c0,.77.62,1.39,1.39,1.39h5.44c.77,0,1.39-.62,1.39-1.39v-10.93h.55c.96,0,1.73-.77,1.73-1.73v-11.13c0-.96-.77-1.73-1.73-1.73Z" style="fill: #909194; stroke-width: 0px;"/>
    </g>
    <g>
      <circle cx="792.66" cy="159.83" r="4.6" style="fill: #909194; stroke-width: 0px;"/>
      <path d="M797.35,166.26h-9.26c-.96,0-1.73.77-1.73,1.73v11.13c0,.96.77,1.73,1.73,1.73h.49v10.93c0,.77.62,1.39,1.39,1.39h5.44c.77,0,1.39-.62,1.39-1.39v-10.93h.55c.96,0,1.73-.77,1.73-1.73v-11.13c0-.96-.77-1.73-1.73-1.73Z" style="fill: #909194; stroke-width: 0px;"/>
    </g>
    <g>
      <circle cx="838.66" cy="159.83" r="4.6" style="fill: #909194; stroke-width: 0px;"/>
      <path d="M843.35,166.26h-9.26c-.96,0-1.73.77-1.73,1.73v11.13c0,.96.77,1.73,1.73,1.73h.49v10.93c0,.77.62,1.39,1.39,1.39h5.44c.77,0,1.39-.62,1.39-1.39v-10.93h.55c.96,0,1.73-.77,1.73-1.73v-11.13c0-.96-.77-1.73-1.73-1.73Z" style="fill: #909194; stroke-width: 0px;"/>
    </g>
    <g>
      <circle cx="885.66" cy="159.83" r="4.6" style="fill: #909194; stroke-width: 0px;"/>
      <path d="M890.35,166.26h-9.26c-.96,0-1.73.77-1.73,1.73v11.13c0,.96.77,1.73,1.73,1.73h.49v10.93c0,.77.62,1.39,1.39,1.39h5.44c.77,0,1.39-.62,1.39-1.39v-10.93h.55c.96,0,1.73-.77,1.73-1.73v-11.13c0-.96-.77-1.73-1.73-1.73Z" style="fill: #909194; stroke-width: 0px;"/>
    </g>
    <g>
      <circle cx="136.66" cy="203.93" r="4.6" style="fill: #909194; stroke-width: 0px;"/>
      <path d="M141.35,210.37h-9.26c-.96,0-1.73.77-1.73,1.73v11.13c0,.96.77,1.73,1.73,1.73h.49v10.93c0,.77.62,1.39,1.39,1.39h5.44c.77,0,1.39-.62,1.39-1.39v-10.93h.55c.96,0,1.73-.77,1.73-1.73v-11.13c0-.96-.77-1.73-1.73-1.73Z" style="fill: #909194; stroke-width: 0px;"/>
    </g>
    <g>
      <circle cx="183.66" cy="203.93" r="4.6" style="fill: #909194; stroke-width: 0px;"/>
      <path d="M188.35,210.37h-9.26c-.96,0-1.73.77-1.73,1.73v11.13c0,.96.77,1.73,1.73,1.73h.49v10.93c0,.77.62,1.39,1.39,1.39h5.44c.77,0,1.39-.62,1.39-1.39v-10.93h.55c.96,0,1.73-.77,1.73-1.73v-11.13c0-.96-.77-1.73-1.73-1.73Z" style="fill: #909194; stroke-width: 0px;"/>
    </g>
    <g>
      <circle cx="231.66" cy="203.93" r="4.6" style="fill: #909194; stroke-width: 0px;"/>
      <path d="M236.35,210.37h-9.26c-.96,0-1.73.77-1.73,1.73v11.13c0,.96.77,1.73,1.73,1.73h.49v10.93c0,.77.62,1.39,1.39,1.39h5.44c.77,0,1.39-.62,1.39-1.39v-10.93h.55c.96,0,1.73-.77,1.73-1.73v-11.13c0-.96-.77-1.73-1.73-1.73Z" style="fill: #909194; stroke-width: 0px;"/>
    </g>
    <g>
      <circle cx="278.66" cy="203.93" r="4.6" style="fill: #909194; stroke-width: 0px;"/>
      <path d="M283.35,210.37h-9.26c-.96,0-1.73.77-1.73,1.73v11.13c0,.96.77,1.73,1.73,1.73h.49v10.93c0,.77.62,1.39,1.39,1.39h5.44c.77,0,1.39-.62,1.39-1.39v-10.93h.55c.96,0,1.73-.77,1.73-1.73v-11.13c0-.96-.77-1.73-1.73-1.73Z" style="fill: #909194; stroke-width: 0px;"/>
    </g>
    <g>
      <circle cx="324.66" cy="203.93" r="4.6" style="fill: #909194; stroke-width: 0px;"/>
      <path d="M329.35,210.37h-9.26c-.96,0-1.73.77-1.73,1.73v11.13c0,.96.77,1.73,1.73,1.73h.49v10.93c0,.77.62,1.39,1.39,1.39h5.44c.77,0,1.39-.62,1.39-1.39v-10.93h.55c.96,0,1.73-.77,1.73-1.73v-11.13c0-.96-.77-1.73-1.73-1.73Z" style="fill: #909194; stroke-width: 0px;"/>
    </g>
    <g>
      <circle cx="371.66" cy="203.93" r="4.6" style="fill: #909194; stroke-width: 0px;"/>
      <path d="M376.35,210.37h-9.26c-.96,0-1.73.77-1.73,1.73v11.13c0,.96.77,1.73,1.73,1.73h.49v10.93c0,.77.62,1.39,1.39,1.39h5.44c.77,0,1.39-.62,1.39-1.39v-10.93h.55c.96,0,1.73-.77,1.73-1.73v-11.13c0-.96-.77-1.73-1.73-1.73Z" style="fill: #909194; stroke-width: 0px;"/>
    </g>
    <g>
      <circle cx="416.66" cy="203.93" r="4.6" style="fill: #909194; stroke-width: 0px;"/>
      <path d="M421.35,210.37h-9.26c-.96,0-1.73.77-1.73,1.73v11.13c0,.96.77,1.73,1.73,1.73h.49v10.93c0,.77.62,1.39,1.39,1.39h5.44c.77,0,1.39-.62,1.39-1.39v-10.93h.55c.96,0,1.73-.77,1.73-1.73v-11.13c0-.96-.77-1.73-1.73-1.73Z" style="fill: #909194; stroke-width: 0px;"/>
    </g>
    <g>
      <circle cx="463.66" cy="112.9" r="4.6" style="fill: #909194; stroke-width: 0px;"/>
      <path d="M468.35,119.34h-9.26c-.96,0-1.73.77-1.73,1.73v11.13c0,.96.77,1.73,1.73,1.73h.49v10.93c0,.77.62,1.39,1.39,1.39h5.44c.77,0,1.39-.62,1.39-1.39v-10.93h.55c.96,0,1.73-.77,1.73-1.73v-11.13c0-.96-.77-1.73-1.73-1.73Z" style="fill: #909194; stroke-width: 0px;"/>
    </g>
    <g>
      <circle cx="511.66" cy="203.93" r="4.6" style="fill: #909194; stroke-width: 0px;"/>
      <path d="M516.35,210.37h-9.26c-.96,0-1.73.77-1.73,1.73v11.13c0,.96.77,1.73,1.73,1.73h.49v10.93c0,.77.62,1.39,1.39,1.39h5.44c.77,0,1.39-.62,1.39-1.39v-10.93h.55c.96,0,1.73-.77,1.73-1.73v-11.13c0-.96-.77-1.73-1.73-1.73Z" style="fill: #909194; stroke-width: 0px;"/>
    </g>
    <g>
      <circle cx="558.66" cy="203.93" r="4.6" style="fill: #909194; stroke-width: 0px;"/>
      <path d="M563.35,210.37h-9.26c-.96,0-1.73.77-1.73,1.73v11.13c0,.96.77,1.73,1.73,1.73h.49v10.93c0,.77.62,1.39,1.39,1.39h5.44c.77,0,1.39-.62,1.39-1.39v-10.93h.55c.96,0,1.73-.77,1.73-1.73v-11.13c0-.96-.77-1.73-1.73-1.73Z" style="fill: #909194; stroke-width: 0px;"/>
    </g>
    <g>
      <circle cx="604.66" cy="203.93" r="4.6" style="fill: #909194; stroke-width: 0px;"/>
      <path d="M609.35,210.37h-9.26c-.96,0-1.73.77-1.73,1.73v11.13c0,.96.77,1.73,1.73,1.73h.49v10.93c0,.77.62,1.39,1.39,1.39h5.44c.77,0,1.39-.62,1.39-1.39v-10.93h.55c.96,0,1.73-.77,1.73-1.73v-11.13c0-.96-.77-1.73-1.73-1.73Z" style="fill: #909194; stroke-width: 0px;"/>
    </g>
    <g>
      <circle cx="651.66" cy="203.93" r="4.6" style="fill: #909194; stroke-width: 0px;"/>
      <path d="M656.35,210.37h-9.26c-.96,0-1.73.77-1.73,1.73v11.13c0,.96.77,1.73,1.73,1.73h.49v10.93c0,.77.62,1.39,1.39,1.39h5.44c.77,0,1.39-.62,1.39-1.39v-10.93h.55c.96,0,1.73-.77,1.73-1.73v-11.13c0-.96-.77-1.73-1.73-1.73Z" style="fill: #909194; stroke-width: 0px;"/>
    </g>
    <g>
      <circle cx="697.66" cy="203.93" r="4.6" style="fill: #909194; stroke-width: 0px;"/>
      <path d="M702.35,210.37h-9.26c-.96,0-1.73.77-1.73,1.73v11.13c0,.96.77,1.73,1.73,1.73h.49v10.93c0,.77.62,1.39,1.39,1.39h5.44c.77,0,1.39-.62,1.39-1.39v-10.93h.55c.96,0,1.73-.77,1.73-1.73v-11.13c0-.96-.77-1.73-1.73-1.73Z" style="fill: #909194; stroke-width: 0px;"/>
    </g>
    <g>
      <circle cx="745.66" cy="203.93" r="4.6" style="fill: #909194; stroke-width: 0px;"/>
      <path d="M750.35,210.37h-9.26c-.96,0-1.73.77-1.73,1.73v11.13c0,.96.77,1.73,1.73,1.73h.49v10.93c0,.77.62,1.39,1.39,1.39h5.44c.77,0,1.39-.62,1.39-1.39v-10.93h.55c.96,0,1.73-.77,1.73-1.73v-11.13c0-.96-.77-1.73-1.73-1.73Z" style="fill: #909194; stroke-width: 0px;"/>
    </g>
    <g>
      <circle cx="792.66" cy="203.93" r="4.6" style="fill: #909194; stroke-width: 0px;"/>
      <path d="M797.35,210.37h-9.26c-.96,0-1.73.77-1.73,1.73v11.13c0,.96.77,1.73,1.73,1.73h.49v10.93c0,.77.62,1.39,1.39,1.39h5.44c.77,0,1.39-.62,1.39-1.39v-10.93h.55c.96,0,1.73-.77,1.73-1.73v-11.13c0-.96-.77-1.73-1.73-1.73Z" style="fill: #909194; stroke-width: 0px;"/>
    </g>
    <g>
      <circle cx="838.66" cy="203.93" r="4.6" style="fill: #909194; stroke-width: 0px;"/>
      <path d="M843.35,210.37h-9.26c-.96,0-1.73.77-1.73,1.73v11.13c0,.96.77,1.73,1.73,1.73h.49v10.93c0,.77.62,1.39,1.39,1.39h5.44c.77,0,1.39-.62,1.39-1.39v-10.93h.55c.96,0,1.73-.77,1.73-1.73v-11.13c0-.96-.77-1.73-1.73-1.73Z" style="fill: #909194; stroke-width: 0px;"/>
    </g>
    <g>
      <circle cx="885.66" cy="203.93" r="4.6" style="fill: #909194; stroke-width: 0px;"/>
      <path d="M890.35,210.37h-9.26c-.96,0-1.73.77-1.73,1.73v11.13c0,.96.77,1.73,1.73,1.73h.49v10.93c0,.77.62,1.39,1.39,1.39h5.44c.77,0,1.39-.62,1.39-1.39v-10.93h.55c.96,0,1.73-.77,1.73-1.73v-11.13c0-.96-.77-1.73-1.73-1.73Z" style="fill: #909194; stroke-width: 0px;"/>
    </g>
    <g>
      <circle cx="136.66" cy="250.93" r="4.6" style="fill: #909194; stroke-width: 0px;"/>
      <path d="M141.35,257.37h-9.26c-.96,0-1.73.77-1.73,1.73v11.13c0,.96.77,1.73,1.73,1.73h.49v10.93c0,.77.62,1.39,1.39,1.39h5.44c.77,0,1.39-.62,1.39-1.39v-10.93h.55c.96,0,1.73-.77,1.73-1.73v-11.13c0-.96-.77-1.73-1.73-1.73Z" style="fill: #909194; stroke-width: 0px;"/>
    </g>
    <g>
      <circle cx="183.66" cy="250.93" r="4.6" style="fill: #909194; stroke-width: 0px;"/>
      <path d="M188.35,257.37h-9.26c-.96,0-1.73.77-1.73,1.73v11.13c0,.96.77,1.73,1.73,1.73h.49v10.93c0,.77.62,1.39,1.39,1.39h5.44c.77,0,1.39-.62,1.39-1.39v-10.93h.55c.96,0,1.73-.77,1.73-1.73v-11.13c0-.96-.77-1.73-1.73-1.73Z" style="fill: #909194; stroke-width: 0px;"/>
    </g>
    <g>
      <circle cx="231.66" cy="250.93" r="4.6" style="fill: #909194; stroke-width: 0px;"/>
      <path d="M236.35,257.37h-9.26c-.96,0-1.73.77-1.73,1.73v11.13c0,.96.77,1.73,1.73,1.73h.49v10.93c0,.77.62,1.39,1.39,1.39h5.44c.77,0,1.39-.62,1.39-1.39v-10.93h.55c.96,0,1.73-.77,1.73-1.73v-11.13c0-.96-.77-1.73-1.73-1.73Z" style="fill: #909194; stroke-width: 0px;"/>
    </g>
    <g>
      <circle cx="278.66" cy="250.93" r="4.6" style="fill: #909194; stroke-width: 0px;"/>
      <path d="M283.35,257.37h-9.26c-.96,0-1.73.77-1.73,1.73v11.13c0,.96.77,1.73,1.73,1.73h.49v10.93c0,.77.62,1.39,1.39,1.39h5.44c.77,0,1.39-.62,1.39-1.39v-10.93h.55c.96,0,1.73-.77,1.73-1.73v-11.13c0-.96-.77-1.73-1.73-1.73Z" style="fill: #909194; stroke-width: 0px;"/>
    </g>
    <g>
      <circle cx="324.66" cy="250.93" r="4.6" style="fill: #909194; stroke-width: 0px;"/>
      <path d="M329.35,257.37h-9.26c-.96,0-1.73.77-1.73,1.73v11.13c0,.96.77,1.73,1.73,1.73h.49v10.93c0,.77.62,1.39,1.39,1.39h5.44c.77,0,1.39-.62,1.39-1.39v-10.93h.55c.96,0,1.73-.77,1.73-1.73v-11.13c0-.96-.77-1.73-1.73-1.73Z" style="fill: #909194; stroke-width: 0px;"/>
    </g>
    <g>
      <circle cx="371.66" cy="250.93" r="4.6" style="fill: #909194; stroke-width: 0px;"/>
      <path d="M376.35,257.37h-9.26c-.96,0-1.73.77-1.73,1.73v11.13c0,.96.77,1.73,1.73,1.73h.49v10.93c0,.77.62,1.39,1.39,1.39h5.44c.77,0,1.39-.62,1.39-1.39v-10.93h.55c.96,0,1.73-.77,1.73-1.73v-11.13c0-.96-.77-1.73-1.73-1.73Z" style="fill: #909194; stroke-width: 0px;"/>
    </g>
    <g>
      <circle cx="416.66" cy="250.93" r="4.6" style="fill: #909194; stroke-width: 0px;"/>
      <path d="M421.35,257.37h-9.26c-.96,0-1.73.77-1.73,1.73v11.13c0,.96.77,1.73,1.73,1.73h.49v10.93c0,.77.62,1.39,1.39,1.39h5.44c.77,0,1.39-.62,1.39-1.39v-10.93h.55c.96,0,1.73-.77,1.73-1.73v-11.13c0-.96-.77-1.73-1.73-1.73Z" style="fill: #909194; stroke-width: 0px;"/>
    </g>
    <g>
      <circle cx="463.66" cy="159.83" r="4.6" style="fill: #909194; stroke-width: 0px;"/>
      <path d="M468.35,166.26h-9.26c-.96,0-1.73.77-1.73,1.73v11.13c0,.96.77,1.73,1.73,1.73h.49v10.93c0,.77.62,1.39,1.39,1.39h5.44c.77,0,1.39-.62,1.39-1.39v-10.93h.55c.96,0,1.73-.77,1.73-1.73v-11.13c0-.96-.77-1.73-1.73-1.73Z" style="fill: #909194; stroke-width: 0px;"/>
    </g>
    <g>
      <circle cx="511.66" cy="250.93" r="4.6" style="fill: #909194; stroke-width: 0px;"/>
      <path d="M516.35,257.37h-9.26c-.96,0-1.73.77-1.73,1.73v11.13c0,.96.77,1.73,1.73,1.73h.49v10.93c0,.77.62,1.39,1.39,1.39h5.44c.77,0,1.39-.62,1.39-1.39v-10.93h.55c.96,0,1.73-.77,1.73-1.73v-11.13c0-.96-.77-1.73-1.73-1.73Z" style="fill: #909194; stroke-width: 0px;"/>
    </g>
    <g>
      <circle cx="558.66" cy="250.93" r="4.6" style="fill: #909194; stroke-width: 0px;"/>
      <path d="M563.35,257.37h-9.26c-.96,0-1.73.77-1.73,1.73v11.13c0,.96.77,1.73,1.73,1.73h.49v10.93c0,.77.62,1.39,1.39,1.39h5.44c.77,0,1.39-.62,1.39-1.39v-10.93h.55c.96,0,1.73-.77,1.73-1.73v-11.13c0-.96-.77-1.73-1.73-1.73Z" style="fill: #909194; stroke-width: 0px;"/>
    </g>
    <g>
      <circle cx="604.66" cy="250.93" r="4.6" style="fill: #909194; stroke-width: 0px;"/>
      <path d="M609.35,257.37h-9.26c-.96,0-1.73.77-1.73,1.73v11.13c0,.96.77,1.73,1.73,1.73h.49v10.93c0,.77.62,1.39,1.39,1.39h5.44c.77,0,1.39-.62,1.39-1.39v-10.93h.55c.96,0,1.73-.77,1.73-1.73v-11.13c0-.96-.77-1.73-1.73-1.73Z" style="fill: #909194; stroke-width: 0px;"/>
    </g>
    <g>
      <circle cx="651.66" cy="250.93" r="4.6" style="fill: #909194; stroke-width: 0px;"/>
      <path d="M656.35,257.37h-9.26c-.96,0-1.73.77-1.73,1.73v11.13c0,.96.77,1.73,1.73,1.73h.49v10.93c0,.77.62,1.39,1.39,1.39h5.44c.77,0,1.39-.62,1.39-1.39v-10.93h.55c.96,0,1.73-.77,1.73-1.73v-11.13c0-.96-.77-1.73-1.73-1.73Z" style="fill: #909194; stroke-width: 0px;"/>
    </g>
    <g>
      <circle cx="697.66" cy="250.93" r="4.6" style="fill: #909194; stroke-width: 0px;"/>
      <path d="M702.35,257.37h-9.26c-.96,0-1.73.77-1.73,1.73v11.13c0,.96.77,1.73,1.73,1.73h.49v10.93c0,.77.62,1.39,1.39,1.39h5.44c.77,0,1.39-.62,1.39-1.39v-10.93h.55c.96,0,1.73-.77,1.73-1.73v-11.13c0-.96-.77-1.73-1.73-1.73Z" style="fill: #909194; stroke-width: 0px;"/>
    </g>
    <g>
      <circle cx="745.66" cy="250.93" r="4.6" style="fill: #909194; stroke-width: 0px;"/>
      <path d="M750.35,257.37h-9.26c-.96,0-1.73.77-1.73,1.73v11.13c0,.96.77,1.73,1.73,1.73h.49v10.93c0,.77.62,1.39,1.39,1.39h5.44c.77,0,1.39-.62,1.39-1.39v-10.93h.55c.96,0,1.73-.77,1.73-1.73v-11.13c0-.96-.77-1.73-1.73-1.73Z" style="fill: #909194; stroke-width: 0px;"/>
    </g>
    <g>
      <circle cx="792.66" cy="250.93" r="4.6" style="fill: #909194; stroke-width: 0px;"/>
      <path d="M797.35,257.37h-9.26c-.96,0-1.73.77-1.73,1.73v11.13c0,.96.77,1.73,1.73,1.73h.49v10.93c0,.77.62,1.39,1.39,1.39h5.44c.77,0,1.39-.62,1.39-1.39v-10.93h.55c.96,0,1.73-.77,1.73-1.73v-11.13c0-.96-.77-1.73-1.73-1.73Z" style="fill: #909194; stroke-width: 0px;"/>
    </g>
    <g>
      <circle cx="838.66" cy="250.93" r="4.6" style="fill: #909194; stroke-width: 0px;"/>
      <path d="M843.35,257.37h-9.26c-.96,0-1.73.77-1.73,1.73v11.13c0,.96.77,1.73,1.73,1.73h.49v10.93c0,.77.62,1.39,1.39,1.39h5.44c.77,0,1.39-.62,1.39-1.39v-10.93h.55c.96,0,1.73-.77,1.73-1.73v-11.13c0-.96-.77-1.73-1.73-1.73Z" style="fill: #909194; stroke-width: 0px;"/>
    </g>
    <g>
      <circle cx="885.66" cy="250.93" r="4.6" style="fill: #909194; stroke-width: 0px;"/>
      <path d="M890.35,257.37h-9.26c-.96,0-1.73.77-1.73,1.73v11.13c0,.96.77,1.73,1.73,1.73h.49v10.93c0,.77.62,1.39,1.39,1.39h5.44c.77,0,1.39-.62,1.39-1.39v-10.93h.55c.96,0,1.73-.77,1.73-1.73v-11.13c0-.96-.77-1.73-1.73-1.73Z" style="fill: #909194; stroke-width: 0px;"/>
    </g>
    <g>
      <circle cx="136.66" cy="300.93" r="4.6" style="fill: #909194; stroke-width: 0px;"/>
      <path d="M141.35,307.37h-9.26c-.96,0-1.73.77-1.73,1.73v11.13c0,.96.77,1.73,1.73,1.73h.49v10.93c0,.77.62,1.39,1.39,1.39h5.44c.77,0,1.39-.62,1.39-1.39v-10.93h.55c.96,0,1.73-.77,1.73-1.73v-11.13c0-.96-.77-1.73-1.73-1.73Z" style="fill: #909194; stroke-width: 0px;"/>
    </g>
    <g>
      <circle cx="183.66" cy="300.93" r="4.6" style="fill: #909194; stroke-width: 0px;"/>
      <path d="M188.35,307.37h-9.26c-.96,0-1.73.77-1.73,1.73v11.13c0,.96.77,1.73,1.73,1.73h.49v10.93c0,.77.62,1.39,1.39,1.39h5.44c.77,0,1.39-.62,1.39-1.39v-10.93h.55c.96,0,1.73-.77,1.73-1.73v-11.13c0-.96-.77-1.73-1.73-1.73Z" style="fill: #909194; stroke-width: 0px;"/>
    </g>
    <g>
      <circle cx="231.66" cy="300.93" r="4.6" style="fill: #909194; stroke-width: 0px;"/>
      <path d="M236.35,307.37h-9.26c-.96,0-1.73.77-1.73,1.73v11.13c0,.96.77,1.73,1.73,1.73h.49v10.93c0,.77.62,1.39,1.39,1.39h5.44c.77,0,1.39-.62,1.39-1.39v-10.93h.55c.96,0,1.73-.77,1.73-1.73v-11.13c0-.96-.77-1.73-1.73-1.73Z" style="fill: #909194; stroke-width: 0px;"/>
    </g>
    <g>
      <circle cx="278.66" cy="300.93" r="4.6" style="fill: #909194; stroke-width: 0px;"/>
      <path d="M283.35,307.37h-9.26c-.96,0-1.73.77-1.73,1.73v11.13c0,.96.77,1.73,1.73,1.73h.49v10.93c0,.77.62,1.39,1.39,1.39h5.44c.77,0,1.39-.62,1.39-1.39v-10.93h.55c.96,0,1.73-.77,1.73-1.73v-11.13c0-.96-.77-1.73-1.73-1.73Z" style="fill: #909194; stroke-width: 0px;"/>
    </g>
    <g>
      <circle cx="324.66" cy="300.93" r="4.6" style="fill: #909194; stroke-width: 0px;"/>
      <path d="M329.35,307.37h-9.26c-.96,0-1.73.77-1.73,1.73v11.13c0,.96.77,1.73,1.73,1.73h.49v10.93c0,.77.62,1.39,1.39,1.39h5.44c.77,0,1.39-.62,1.39-1.39v-10.93h.55c.96,0,1.73-.77,1.73-1.73v-11.13c0-.96-.77-1.73-1.73-1.73Z" style="fill: #909194; stroke-width: 0px;"/>
    </g>
    <g>
      <circle cx="463.45" cy="252.09" r="4.6" style="fill: #909194; stroke-width: 0px;"/>
      <path d="M468.14,258.52h-9.26c-.96,0-1.73.77-1.73,1.73v11.13c0,.96.77,1.73,1.73,1.73h.49v10.93c0,.77.62,1.39,1.39,1.39h5.44c.77,0,1.39-.62,1.39-1.39v-10.93h.55c.96,0,1.73-.77,1.73-1.73v-11.13c0-.96-.77-1.73-1.73-1.73Z" style="fill: #909194; stroke-width: 0px;"/>
    </g>
    <g>
      <circle cx="415.93" cy="112.9" r="4.6" style="fill: #909194; stroke-width: 0px;"/>
      <path d="M420.62,119.34h-9.26c-.96,0-1.73.77-1.73,1.73v11.13c0,.96.77,1.73,1.73,1.73h.49v10.93c0,.77.62,1.39,1.39,1.39h5.44c.77,0,1.39-.62,1.39-1.39v-10.93h.55c.96,0,1.73-.77,1.73-1.73v-11.13c0-.96-.77-1.73-1.73-1.73Z" style="fill: #909194; stroke-width: 0px;"/>
    </g>
    <g>
      <circle cx="463.66" cy="203.93" r="4.6" style="fill: #909194; stroke-width: 0px;"/>
      <path d="M468.35,210.37h-9.26c-.96,0-1.73.77-1.73,1.73v11.13c0,.96.77,1.73,1.73,1.73h.49v10.93c0,.77.62,1.39,1.39,1.39h5.44c.77,0,1.39-.62,1.39-1.39v-10.93h.55c.96,0,1.73-.77,1.73-1.73v-11.13c0-.96-.77-1.73-1.73-1.73Z" style="fill: #909194; stroke-width: 0px;"/>
    </g>
    <g>
      <circle cx="78.1" cy="205.36" r="4.6" style="fill: #909194; stroke-width: 0px;"/>
      <path d="M82.79,211.79h-9.26c-.96,0-1.73.77-1.73,1.73v11.13c0,.96.77,1.73,1.73,1.73h.49v10.93c0,.77.62,1.39,1.39,1.39h5.44c.77,0,1.39-.62,1.39-1.39v-10.93h.55c.96,0,1.73-.77,1.73-1.73v-11.13c0-.96-.77-1.73-1.73-1.73Z" style="fill: #909194; stroke-width: 0px;"/>
    </g>
    <g>
      <circle cx="31.66" cy="159.83" r="4.6" style="fill: #e48b3d; stroke-width: 0px;"/>
      <path d="M36.35,166.26h-9.26c-.96,0-1.73.77-1.73,1.73v11.13c0,.96.77,1.73,1.73,1.73h.49v10.93c0,.77.62,1.39,1.39,1.39h5.44c.77,0,1.39-.62,1.39-1.39v-10.93h.55c.96,0,1.73-.77,1.73-1.73v-11.13c0-.96-.77-1.73-1.73-1.73Z" style="fill: #e48b3d; stroke-width: 0px;"/>
    </g>
    <g>
      <circle cx="78.66" cy="159.83" r="4.6" style="fill: #e48b3d; stroke-width: 0px;"/>
      <path d="M83.35,166.26h-9.26c-.96,0-1.73.77-1.73,1.73v11.13c0,.96.77,1.73,1.73,1.73h.49v10.93c0,.77.62,1.39,1.39,1.39h5.44c.77,0,1.39-.62,1.39-1.39v-10.93h.55c.96,0,1.73-.77,1.73-1.73v-11.13c0-.96-.77-1.73-1.73-1.73Z" style="fill: #e48b3d; stroke-width: 0px;"/>
    </g>
    <g>
      <circle cx="31.66" cy="204.93" r="4.6" style="fill: #e48b3d; stroke-width: 0px;"/>
      <path d="M36.35,211.37h-9.26c-.96,0-1.73.77-1.73,1.73v11.13c0,.96.77,1.73,1.73,1.73h.49v10.93c0,.77.62,1.39,1.39,1.39h5.44c.77,0,1.39-.62,1.39-1.39v-10.93h.55c.96,0,1.73-.77,1.73-1.73v-11.13c0-.96-.77-1.73-1.73-1.73Z" style="fill: #e48b3d; stroke-width: 0px;"/>
    </g>
  </g>
</svg>